<svg aria-roledescription="sequence" role="graphics-document document" viewBox="-372 -10 1830 3753" style="max-width: 100%;" xmlns="http://www.w3.org/2000/svg" width="100%" id="graph-div" height="100%" xmlns:xlink="http://www.w3.org/1999/xlink"><style>@import url("https://cdnjs.cloudflare.com/ajax/libs/font-awesome/6.5.0/css/all.min.css");'</style><g><rect class="actor" ry="3" rx="3" height="65" width="150" stroke="#666" fill="#eaeaea" y="3667" x="1031"></rect><text style="text-anchor: middle; font-size: 24px; font-weight: 400; font-family: arial;" class="actor" alignment-baseline="central" dominant-baseline="central" y="3699.5" x="1106"><tspan dy="0" x="1106">RST-TOS</tspan></text></g><g><rect class="actor" ry="3" rx="3" height="65" width="150" stroke="#666" fill="#eaeaea" y="3667" x="702"></rect><text style="text-anchor: middle; font-size: 24px; font-weight: 400; font-family: arial;" class="actor" alignment-baseline="central" dominant-baseline="central" y="3699.5" x="777"><tspan dy="0" x="777">RST-API</tspan></text></g><g><rect class="actor" ry="3" rx="3" height="65" width="150" stroke="#666" fill="#eaeaea" y="3667" x="323"></rect><text style="text-anchor: middle; font-size: 24px; font-weight: 400; font-family: arial;" class="actor" alignment-baseline="central" dominant-baseline="central" y="3699.5" x="398"><tspan dy="0" x="398">RSP Portal</tspan></text></g><g><rect class="actor" ry="3" rx="3" height="65" width="150" stroke="#666" fill="#eaeaea" y="3667" x="0"></rect><text style="text-anchor: middle; font-size: 24px; font-weight: 400; font-family: arial;" class="actor" alignment-baseline="central" dominant-baseline="central" y="3699.5" x="75"><tspan dy="0" x="75">Applicant</tspan></text></g><g><line stroke="#999" stroke-width="0.5px" class="200" y2="3667" x2="1106" y1="5" x1="1106" id="actor203"></line><g id="root-203"><rect class="actor" ry="3" rx="3" height="65" width="150" stroke="#666" fill="#eaeaea" y="0" x="1031"></rect><text style="text-anchor: middle; font-size: 24px; font-weight: 400; font-family: arial;" class="actor" alignment-baseline="central" dominant-baseline="central" y="32.5" x="1106"><tspan dy="0" x="1106">RST-TOS</tspan></text></g></g><g><line stroke="#999" stroke-width="0.5px" class="200" y2="3667" x2="777" y1="5" x1="777" id="actor202"></line><g id="root-202"><rect class="actor" ry="3" rx="3" height="65" width="150" stroke="#666" fill="#eaeaea" y="0" x="702"></rect><text style="text-anchor: middle; font-size: 24px; font-weight: 400; font-family: arial;" class="actor" alignment-baseline="central" dominant-baseline="central" y="32.5" x="777"><tspan dy="0" x="777">RST-API</tspan></text></g></g><g><line stroke="#999" stroke-width="0.5px" class="200" y2="3667" x2="398" y1="5" x1="398" id="actor201"></line><g id="root-201"><rect class="actor" ry="3" rx="3" height="65" width="150" stroke="#666" fill="#eaeaea" y="0" x="323"></rect><text style="text-anchor: middle; font-size: 24px; font-weight: 400; font-family: arial;" class="actor" alignment-baseline="central" dominant-baseline="central" y="32.5" x="398"><tspan dy="0" x="398">RSP Portal</tspan></text></g></g><g><line stroke="#999" stroke-width="0.5px" class="200" y2="3667" x2="75" y1="5" x1="75" id="actor200"></line><g id="root-200"><rect class="actor" ry="3" rx="3" height="65" width="150" stroke="#666" fill="#eaeaea" y="0" x="0"></rect><text style="text-anchor: middle; font-size: 24px; font-weight: 400; font-family: arial;" class="actor" alignment-baseline="central" dominant-baseline="central" y="32.5" x="75"><tspan dy="0" x="75">Applicant</tspan></text></g></g><style>#graph-div{font-family:arial;font-size:16px;fill:#333;}#graph-div .error-icon{fill:#552222;}#graph-div .error-text{fill:#552222;stroke:#552222;}#graph-div .edge-thickness-normal{stroke-width:2px;}#graph-div .edge-thickness-thick{stroke-width:3.5px;}#graph-div .edge-pattern-solid{stroke-dasharray:0;}#graph-div .edge-pattern-dashed{stroke-dasharray:3;}#graph-div .edge-pattern-dotted{stroke-dasharray:2;}#graph-div .marker{fill:#333333;stroke:#333333;}#graph-div .marker.cross{stroke:#333333;}#graph-div svg{font-family:arial;font-size:16px;}#graph-div .actor{stroke:hsl(259.6261682243, 59.7765363128%, 87.9019607843%);fill:#ECECFF;}#graph-div text.actor&gt;tspan{fill:black;stroke:none;}#graph-div .actor-line{stroke:grey;}#graph-div .messageLine0{stroke-width:1.5;stroke-dasharray:none;stroke:#333;}#graph-div .messageLine1{stroke-width:1.5;stroke-dasharray:2,2;stroke:#333;}#graph-div #arrowhead path{fill:#333;stroke:#333;}#graph-div .sequenceNumber{fill:white;}#graph-div #sequencenumber{fill:#333;}#graph-div #crosshead path{fill:#333;stroke:#333;}#graph-div .messageText{fill:#333;stroke:none;}#graph-div .labelBox{stroke:hsl(259.6261682243, 59.7765363128%, 87.9019607843%);fill:#ECECFF;}#graph-div .labelText,#graph-div .labelText&gt;tspan{fill:black;stroke:none;}#graph-div .loopText,#graph-div .loopText&gt;tspan{fill:black;stroke:none;}#graph-div .loopLine{stroke-width:2px;stroke-dasharray:2,2;stroke:hsl(259.6261682243, 59.7765363128%, 87.9019607843%);fill:hsl(259.6261682243, 59.7765363128%, 87.9019607843%);}#graph-div .note{stroke:#aaaa33;fill:#fff5ad;}#graph-div .noteText,#graph-div .noteText&gt;tspan{fill:black;stroke:none;}#graph-div .activation0{fill:#f4f4f4;stroke:#666;}#graph-div .activation1{fill:#f4f4f4;stroke:#666;}#graph-div .activation2{fill:#f4f4f4;stroke:#666;}#graph-div .actorPopupMenu{position:absolute;}#graph-div .actorPopupMenuPanel{position:absolute;fill:#ECECFF;box-shadow:0px 8px 16px 0px rgba(0,0,0,0.2);filter:drop-shadow(3px 5px 2px rgb(0 0 0 / 0.4));}#graph-div .actor-man line{stroke:hsl(259.6261682243, 59.7765363128%, 87.9019607843%);fill:#ECECFF;}#graph-div .actor-man circle,#graph-div line{stroke:hsl(259.6261682243, 59.7765363128%, 87.9019607843%);fill:#ECECFF;stroke-width:2px;}#graph-div :root{--mermaid-font-family:arial;}</style><g></g><defs><symbol height="24" width="24" id="computer"><path d="M2 2v13h20v-13h-20zm18 11h-16v-9h16v9zm-10.228 6l.466-1h3.524l.467 1h-4.457zm14.228 3h-24l2-6h2.104l-1.33 4h18.45l-1.297-4h2.073l2 6zm-5-10h-14v-7h14v7z" transform="scale(.5)"></path></symbol></defs><defs><symbol clip-rule="evenodd" fill-rule="evenodd" id="database"><path d="M12.258.001l.256.004.255.005.253.008.251.01.249.012.247.015.246.016.242.019.241.02.239.023.236.024.233.027.231.028.229.031.225.032.223.034.22.036.217.038.214.04.211.041.208.043.205.045.201.046.198.048.194.05.191.051.187.053.183.054.18.056.175.057.172.059.168.06.163.061.16.063.155.064.15.066.074.033.073.033.071.034.07.034.069.035.068.035.067.035.066.035.064.036.064.036.062.036.06.036.06.037.058.037.058.037.055.038.055.038.053.038.052.038.051.039.05.039.048.039.047.039.045.04.044.04.043.04.041.04.04.041.039.041.037.041.036.041.034.041.033.042.032.042.03.042.029.042.027.042.026.043.024.043.023.043.021.043.02.043.018.044.017.043.015.044.013.044.012.044.011.045.009.044.007.045.006.045.004.045.002.045.001.045v17l-.001.045-.002.045-.004.045-.006.045-.007.045-.009.044-.011.045-.012.044-.013.044-.015.044-.017.043-.018.044-.02.043-.021.043-.023.043-.024.043-.026.043-.027.042-.029.042-.03.042-.032.042-.033.042-.034.041-.036.041-.037.041-.039.041-.04.041-.041.04-.043.04-.044.04-.045.04-.047.039-.048.039-.05.039-.051.039-.052.038-.053.038-.055.038-.055.038-.058.037-.058.037-.06.037-.06.036-.062.036-.064.036-.064.036-.066.035-.067.035-.068.035-.069.035-.07.034-.071.034-.073.033-.074.033-.15.066-.155.064-.16.063-.163.061-.168.06-.172.059-.175.057-.18.056-.183.054-.187.053-.191.051-.194.05-.198.048-.201.046-.205.045-.208.043-.211.041-.214.04-.217.038-.22.036-.223.034-.225.032-.229.031-.231.028-.233.027-.236.024-.239.023-.241.02-.242.019-.246.016-.247.015-.249.012-.251.01-.253.008-.255.005-.256.004-.258.001-.258-.001-.256-.004-.255-.005-.253-.008-.251-.01-.249-.012-.247-.015-.245-.016-.243-.019-.241-.02-.238-.023-.236-.024-.234-.027-.231-.028-.228-.031-.226-.032-.223-.034-.22-.036-.217-.038-.214-.04-.211-.041-.208-.043-.204-.045-.201-.046-.198-.048-.195-.05-.19-.051-.187-.053-.184-.054-.179-.056-.176-.057-.172-.059-.167-.06-.164-.061-.159-.063-.155-.064-.151-.066-.074-.033-.072-.033-.072-.034-.07-.034-.069-.035-.068-.035-.067-.035-.066-.035-.064-.036-.063-.036-.062-.036-.061-.036-.06-.037-.058-.037-.057-.037-.056-.038-.055-.038-.053-.038-.052-.038-.051-.039-.049-.039-.049-.039-.046-.039-.046-.04-.044-.04-.043-.04-.041-.04-.04-.041-.039-.041-.037-.041-.036-.041-.034-.041-.033-.042-.032-.042-.03-.042-.029-.042-.027-.042-.026-.043-.024-.043-.023-.043-.021-.043-.02-.043-.018-.044-.017-.043-.015-.044-.013-.044-.012-.044-.011-.045-.009-.044-.007-.045-.006-.045-.004-.045-.002-.045-.001-.045v-17l.001-.045.002-.045.004-.045.006-.045.007-.045.009-.044.011-.045.012-.044.013-.044.015-.044.017-.043.018-.044.02-.043.021-.043.023-.043.024-.043.026-.043.027-.042.029-.042.03-.042.032-.042.033-.042.034-.041.036-.041.037-.041.039-.041.04-.041.041-.04.043-.04.044-.04.046-.04.046-.039.049-.039.049-.039.051-.039.052-.038.053-.038.055-.038.056-.038.057-.037.058-.037.06-.037.061-.036.062-.036.063-.036.064-.036.066-.035.067-.035.068-.035.069-.035.07-.034.072-.034.072-.033.074-.033.151-.066.155-.064.159-.063.164-.061.167-.06.172-.059.176-.057.179-.056.184-.054.187-.053.19-.051.195-.05.198-.048.201-.046.204-.045.208-.043.211-.041.214-.04.217-.038.22-.036.223-.034.226-.032.228-.031.231-.028.234-.027.236-.024.238-.023.241-.02.243-.019.245-.016.247-.015.249-.012.251-.01.253-.008.255-.005.256-.004.258-.001.258.001zm-9.258 20.499v.01l.001.021.003.021.004.022.005.021.006.022.007.022.009.023.01.022.011.023.012.023.013.023.015.023.016.024.017.023.018.024.019.024.021.024.022.025.023.024.024.025.052.049.056.05.061.051.066.051.07.051.075.051.079.052.084.052.088.052.092.052.097.052.102.051.105.052.11.052.114.051.119.051.123.051.127.05.131.05.135.05.139.048.144.049.147.047.152.047.155.047.16.045.163.045.167.043.171.043.176.041.178.041.183.039.187.039.19.037.194.035.197.035.202.033.204.031.209.03.212.029.216.027.219.025.222.024.226.021.23.02.233.018.236.016.24.015.243.012.246.01.249.008.253.005.256.004.259.001.26-.001.257-.004.254-.005.25-.008.247-.011.244-.012.241-.014.237-.016.233-.018.231-.021.226-.021.224-.024.22-.026.216-.027.212-.028.21-.031.205-.031.202-.034.198-.034.194-.036.191-.037.187-.039.183-.04.179-.04.175-.042.172-.043.168-.044.163-.045.16-.046.155-.046.152-.047.148-.048.143-.049.139-.049.136-.05.131-.05.126-.05.123-.051.118-.052.114-.051.11-.052.106-.052.101-.052.096-.052.092-.052.088-.053.083-.051.079-.052.074-.052.07-.051.065-.051.06-.051.056-.05.051-.05.023-.024.023-.025.021-.024.02-.024.019-.024.018-.024.017-.024.015-.023.014-.024.013-.023.012-.023.01-.023.01-.022.008-.022.006-.022.006-.022.004-.022.004-.021.001-.021.001-.021v-4.127l-.077.055-.08.053-.083.054-.085.053-.087.052-.09.052-.093.051-.095.05-.097.05-.1.049-.102.049-.105.048-.106.047-.109.047-.111.046-.114.045-.115.045-.118.044-.12.043-.122.042-.124.042-.126.041-.128.04-.13.04-.132.038-.134.038-.135.037-.138.037-.139.035-.142.035-.143.034-.144.033-.147.032-.148.031-.15.03-.151.03-.153.029-.154.027-.156.027-.158.026-.159.025-.161.024-.162.023-.163.022-.165.021-.166.02-.167.019-.169.018-.169.017-.171.016-.173.015-.173.014-.175.013-.175.012-.177.011-.178.01-.179.008-.179.008-.181.006-.182.005-.182.004-.184.003-.184.002h-.37l-.184-.002-.184-.003-.182-.004-.182-.005-.181-.006-.179-.008-.179-.008-.178-.01-.176-.011-.176-.012-.175-.013-.173-.014-.172-.015-.171-.016-.17-.017-.169-.018-.167-.019-.166-.02-.165-.021-.163-.022-.162-.023-.161-.024-.159-.025-.157-.026-.156-.027-.155-.027-.153-.029-.151-.03-.15-.03-.148-.031-.146-.032-.145-.033-.143-.034-.141-.035-.14-.035-.137-.037-.136-.037-.134-.038-.132-.038-.13-.04-.128-.04-.126-.041-.124-.042-.122-.042-.12-.044-.117-.043-.116-.045-.113-.045-.112-.046-.109-.047-.106-.047-.105-.048-.102-.049-.1-.049-.097-.05-.095-.05-.093-.052-.09-.051-.087-.052-.085-.053-.083-.054-.08-.054-.077-.054v4.127zm0-5.654v.011l.001.021.003.021.004.021.005.022.006.022.007.022.009.022.01.022.011.023.012.023.013.023.015.024.016.023.017.024.018.024.019.024.021.024.022.024.023.025.024.024.052.05.056.05.061.05.066.051.07.051.075.052.079.051.084.052.088.052.092.052.097.052.102.052.105.052.11.051.114.051.119.052.123.05.127.051.131.05.135.049.139.049.144.048.147.048.152.047.155.046.16.045.163.045.167.044.171.042.176.042.178.04.183.04.187.038.19.037.194.036.197.034.202.033.204.032.209.03.212.028.216.027.219.025.222.024.226.022.23.02.233.018.236.016.24.014.243.012.246.01.249.008.253.006.256.003.259.001.26-.001.257-.003.254-.006.25-.008.247-.01.244-.012.241-.015.237-.016.233-.018.231-.02.226-.022.224-.024.22-.025.216-.027.212-.029.21-.03.205-.032.202-.033.198-.035.194-.036.191-.037.187-.039.183-.039.179-.041.175-.042.172-.043.168-.044.163-.045.16-.045.155-.047.152-.047.148-.048.143-.048.139-.05.136-.049.131-.05.126-.051.123-.051.118-.051.114-.052.11-.052.106-.052.101-.052.096-.052.092-.052.088-.052.083-.052.079-.052.074-.051.07-.052.065-.051.06-.05.056-.051.051-.049.023-.025.023-.024.021-.025.02-.024.019-.024.018-.024.017-.024.015-.023.014-.023.013-.024.012-.022.01-.023.01-.023.008-.022.006-.022.006-.022.004-.021.004-.022.001-.021.001-.021v-4.139l-.077.054-.08.054-.083.054-.085.052-.087.053-.09.051-.093.051-.095.051-.097.05-.1.049-.102.049-.105.048-.106.047-.109.047-.111.046-.114.045-.115.044-.118.044-.12.044-.122.042-.124.042-.126.041-.128.04-.13.039-.132.039-.134.038-.135.037-.138.036-.139.036-.142.035-.143.033-.144.033-.147.033-.148.031-.15.03-.151.03-.153.028-.154.028-.156.027-.158.026-.159.025-.161.024-.162.023-.163.022-.165.021-.166.02-.167.019-.169.018-.169.017-.171.016-.173.015-.173.014-.175.013-.175.012-.177.011-.178.009-.179.009-.179.007-.181.007-.182.005-.182.004-.184.003-.184.002h-.37l-.184-.002-.184-.003-.182-.004-.182-.005-.181-.007-.179-.007-.179-.009-.178-.009-.176-.011-.176-.012-.175-.013-.173-.014-.172-.015-.171-.016-.17-.017-.169-.018-.167-.019-.166-.02-.165-.021-.163-.022-.162-.023-.161-.024-.159-.025-.157-.026-.156-.027-.155-.028-.153-.028-.151-.03-.15-.03-.148-.031-.146-.033-.145-.033-.143-.033-.141-.035-.14-.036-.137-.036-.136-.037-.134-.038-.132-.039-.13-.039-.128-.04-.126-.041-.124-.042-.122-.043-.12-.043-.117-.044-.116-.044-.113-.046-.112-.046-.109-.046-.106-.047-.105-.048-.102-.049-.1-.049-.097-.05-.095-.051-.093-.051-.09-.051-.087-.053-.085-.052-.083-.054-.08-.054-.077-.054v4.139zm0-5.666v.011l.001.02.003.022.004.021.005.022.006.021.007.022.009.023.01.022.011.023.012.023.013.023.015.023.016.024.017.024.018.023.019.024.021.025.022.024.023.024.024.025.052.05.056.05.061.05.066.051.07.051.075.052.079.051.084.052.088.052.092.052.097.052.102.052.105.051.11.052.114.051.119.051.123.051.127.05.131.05.135.05.139.049.144.048.147.048.152.047.155.046.16.045.163.045.167.043.171.043.176.042.178.04.183.04.187.038.19.037.194.036.197.034.202.033.204.032.209.03.212.028.216.027.219.025.222.024.226.021.23.02.233.018.236.017.24.014.243.012.246.01.249.008.253.006.256.003.259.001.26-.001.257-.003.254-.006.25-.008.247-.01.244-.013.241-.014.237-.016.233-.018.231-.02.226-.022.224-.024.22-.025.216-.027.212-.029.21-.03.205-.032.202-.033.198-.035.194-.036.191-.037.187-.039.183-.039.179-.041.175-.042.172-.043.168-.044.163-.045.16-.045.155-.047.152-.047.148-.048.143-.049.139-.049.136-.049.131-.051.126-.05.123-.051.118-.052.114-.051.11-.052.106-.052.101-.052.096-.052.092-.052.088-.052.083-.052.079-.052.074-.052.07-.051.065-.051.06-.051.056-.05.051-.049.023-.025.023-.025.021-.024.02-.024.019-.024.018-.024.017-.024.015-.023.014-.024.013-.023.012-.023.01-.022.01-.023.008-.022.006-.022.006-.022.004-.022.004-.021.001-.021.001-.021v-4.153l-.077.054-.08.054-.083.053-.085.053-.087.053-.09.051-.093.051-.095.051-.097.05-.1.049-.102.048-.105.048-.106.048-.109.046-.111.046-.114.046-.115.044-.118.044-.12.043-.122.043-.124.042-.126.041-.128.04-.13.039-.132.039-.134.038-.135.037-.138.036-.139.036-.142.034-.143.034-.144.033-.147.032-.148.032-.15.03-.151.03-.153.028-.154.028-.156.027-.158.026-.159.024-.161.024-.162.023-.163.023-.165.021-.166.02-.167.019-.169.018-.169.017-.171.016-.173.015-.173.014-.175.013-.175.012-.177.01-.178.01-.179.009-.179.007-.181.006-.182.006-.182.004-.184.003-.184.001-.185.001-.185-.001-.184-.001-.184-.003-.182-.004-.182-.006-.181-.006-.179-.007-.179-.009-.178-.01-.176-.01-.176-.012-.175-.013-.173-.014-.172-.015-.171-.016-.17-.017-.169-.018-.167-.019-.166-.02-.165-.021-.163-.023-.162-.023-.161-.024-.159-.024-.157-.026-.156-.027-.155-.028-.153-.028-.151-.03-.15-.03-.148-.032-.146-.032-.145-.033-.143-.034-.141-.034-.14-.036-.137-.036-.136-.037-.134-.038-.132-.039-.13-.039-.128-.041-.126-.041-.124-.041-.122-.043-.12-.043-.117-.044-.116-.044-.113-.046-.112-.046-.109-.046-.106-.048-.105-.048-.102-.048-.1-.05-.097-.049-.095-.051-.093-.051-.09-.052-.087-.052-.085-.053-.083-.053-.08-.054-.077-.054v4.153zm8.74-8.179l-.257.004-.254.005-.25.008-.247.011-.244.012-.241.014-.237.016-.233.018-.231.021-.226.022-.224.023-.22.026-.216.027-.212.028-.21.031-.205.032-.202.033-.198.034-.194.036-.191.038-.187.038-.183.04-.179.041-.175.042-.172.043-.168.043-.163.045-.16.046-.155.046-.152.048-.148.048-.143.048-.139.049-.136.05-.131.05-.126.051-.123.051-.118.051-.114.052-.11.052-.106.052-.101.052-.096.052-.092.052-.088.052-.083.052-.079.052-.074.051-.07.052-.065.051-.06.05-.056.05-.051.05-.023.025-.023.024-.021.024-.02.025-.019.024-.018.024-.017.023-.015.024-.014.023-.013.023-.012.023-.01.023-.01.022-.008.022-.006.023-.006.021-.004.022-.004.021-.001.021-.001.021.001.021.001.021.004.021.004.022.006.021.006.023.008.022.01.022.01.023.012.023.013.023.014.023.015.024.017.023.018.024.019.024.02.025.021.024.023.024.023.025.051.05.056.05.06.05.065.051.07.052.074.051.079.052.083.052.088.052.092.052.096.052.101.052.106.052.11.052.114.052.118.051.123.051.126.051.131.05.136.05.139.049.143.048.148.048.152.048.155.046.16.046.163.045.168.043.172.043.175.042.179.041.183.04.187.038.191.038.194.036.198.034.202.033.205.032.21.031.212.028.216.027.22.026.224.023.226.022.231.021.233.018.237.016.241.014.244.012.247.011.25.008.254.005.257.004.26.001.26-.001.257-.004.254-.005.25-.008.247-.011.244-.012.241-.014.237-.016.233-.018.231-.021.226-.022.224-.023.22-.026.216-.027.212-.028.21-.031.205-.032.202-.033.198-.034.194-.036.191-.038.187-.038.183-.04.179-.041.175-.042.172-.043.168-.043.163-.045.16-.046.155-.046.152-.048.148-.048.143-.048.139-.049.136-.05.131-.05.126-.051.123-.051.118-.051.114-.052.11-.052.106-.052.101-.052.096-.052.092-.052.088-.052.083-.052.079-.052.074-.051.07-.052.065-.051.06-.05.056-.05.051-.05.023-.025.023-.024.021-.024.02-.025.019-.024.018-.024.017-.023.015-.024.014-.023.013-.023.012-.023.01-.023.01-.022.008-.022.006-.023.006-.021.004-.022.004-.021.001-.021.001-.021-.001-.021-.001-.021-.004-.021-.004-.022-.006-.021-.006-.023-.008-.022-.01-.022-.01-.023-.012-.023-.013-.023-.014-.023-.015-.024-.017-.023-.018-.024-.019-.024-.02-.025-.021-.024-.023-.024-.023-.025-.051-.05-.056-.05-.06-.05-.065-.051-.07-.052-.074-.051-.079-.052-.083-.052-.088-.052-.092-.052-.096-.052-.101-.052-.106-.052-.11-.052-.114-.052-.118-.051-.123-.051-.126-.051-.131-.05-.136-.05-.139-.049-.143-.048-.148-.048-.152-.048-.155-.046-.16-.046-.163-.045-.168-.043-.172-.043-.175-.042-.179-.041-.183-.04-.187-.038-.191-.038-.194-.036-.198-.034-.202-.033-.205-.032-.21-.031-.212-.028-.216-.027-.22-.026-.224-.023-.226-.022-.231-.021-.233-.018-.237-.016-.241-.014-.244-.012-.247-.011-.25-.008-.254-.005-.257-.004-.26-.001-.26.001z" transform="scale(.5)"></path></symbol></defs><defs><symbol height="24" width="24" id="clock"><path d="M12 2c5.514 0 10 4.486 10 10s-4.486 10-10 10-10-4.486-10-10 4.486-10 10-10zm0-2c-6.627 0-12 5.373-12 12s5.373 12 12 12 12-5.373 12-12-5.373-12-12-12zm5.848 12.459c.202.038.202.333.001.372-1.907.361-6.045 1.111-6.547 1.111-.719 0-1.301-.582-1.301-1.301 0-.512.77-5.447 1.125-7.445.034-.192.312-.181.343.014l.985 6.238 5.394 1.011z" transform="scale(.5)"></path></symbol></defs><defs><marker orient="auto" markerHeight="12" markerWidth="12" markerUnits="userSpaceOnUse" refY="5" refX="7.9" id="arrowhead"><path d="M 0 0 L 10 5 L 0 10 z"></path></marker></defs><defs><marker refY="4.5" refX="4" orient="auto" markerHeight="8" markerWidth="15" id="crosshead"><path style="stroke-dasharray: 0, 0;" d="M 1,2 L 6,7 M 6,2 L 1,7" stroke-width="1pt" stroke="#000000" fill="none"></path></marker></defs><defs><marker orient="auto" markerHeight="28" markerWidth="20" refY="7" refX="15.5" id="filled-head"><path d="M 18,7 L9,13 L14,7 L9,1 Z"></path></marker></defs><defs><marker orient="auto" markerHeight="40" markerWidth="60" refY="15" refX="15" id="sequencenumber"><circle r="6" cy="15" cx="15"></circle></marker></defs><g><rect class="activation0" ry="0" rx="0" height="439" width="10" stroke="#666" fill="#EDF2AE" y="158" x="393"></rect></g><g><rect class="note" ry="0" rx="0" height="74" width="223" stroke="#666" fill="#EDF2AE" y="166" x="423"></rect><text style="font-family: arial; font-size: 24px; font-weight: 400;" dy="1em" class="noteText" alignment-baseline="middle" dominant-baseline="middle" text-anchor="middle" y="171" x="535"><tspan x="535">ICANN org</tspan></text><text style="font-family: arial; font-size: 24px; font-weight: 400;" dy="1em" class="noteText" alignment-baseline="middle" dominant-baseline="middle" text-anchor="middle" y="198" x="535"><tspan x="535">reviews application</tspan></text></g><g><rect class="activation0" ry="0" rx="0" height="173" width="10" stroke="#666" fill="#EDF2AE" y="333" x="772"></rect></g><g><rect class="note" ry="0" rx="0" height="74" width="157" stroke="#666" fill="#EDF2AE" y="341" x="802"></rect><text style="font-family: arial; font-size: 24px; font-weight: 400;" dy="1em" class="noteText" alignment-baseline="middle" dominant-baseline="middle" text-anchor="middle" y="346" x="881"><tspan x="881">create test in</tspan></text><text style="font-family: arial; font-size: 24px; font-weight: 400;" dy="1em" class="noteText" alignment-baseline="middle" dominant-baseline="middle" text-anchor="middle" y="373" x="881"><tspan x="881">database</tspan></text></g><g><rect class="activation0" ry="0" rx="0" height="188" width="10" stroke="#666" fill="#EDF2AE" y="678" x="393"></rect></g><g><line class="loopLine" y2="686" x2="788" y1="686" x1="383"></line><line class="loopLine" y2="802" x2="788" y1="686" x1="788"></line><line class="loopLine" y2="802" x2="788" y1="802" x1="383"></line><line class="loopLine" y2="802" x2="383" y1="686" x1="383"></line><polygon class="labelBox" points="383,686 433,686 433,699 424.6,706 383,706"></polygon><text style="font-family: arial; font-size: 24px; font-weight: 400;" class="labelText" alignment-baseline="middle" dominant-baseline="middle" text-anchor="middle" y="699" x="408">loop</text><text style="font-family: arial; font-size: 24px; font-weight: 400;" class="loopText" text-anchor="middle" y="704" x="610.5"><tspan x="610.5">[1h]</tspan></text></g><g><rect class="activation0" ry="0" rx="0" height="363" width="10" stroke="#666" fill="#EDF2AE" y="970" x="70"></rect></g><g><rect class="note" ry="0" rx="0" height="47" width="201" stroke="#666" fill="#EDF2AE" y="1044" x="802"></rect><text style="font-family: arial; font-size: 24px; font-weight: 400;" dy="1em" class="noteText" alignment-baseline="middle" dominant-baseline="middle" text-anchor="middle" y="1049" x="903"><tspan x="903">store parameters</tspan></text></g><g><rect class="note" ry="0" rx="0" height="47" width="150" stroke="#666" fill="#EDF2AE" y="1165" x="802"></rect><text style="font-family: arial; font-size: 24px; font-weight: 400;" dy="1em" class="noteText" alignment-baseline="middle" dominant-baseline="middle" text-anchor="middle" y="1170" x="877"><tspan x="877">store files</tspan></text></g><g><rect class="note" ry="0" rx="0" height="47" width="279" stroke="#666" fill="#EDF2AE" y="1286" x="802"></rect><text style="font-family: arial; font-size: 24px; font-weight: 400;" dy="1em" class="noteText" alignment-baseline="middle" dominant-baseline="middle" text-anchor="middle" y="1291" x="942"><tspan x="942">set test status to "ready"</tspan></text></g><g><rect class="activation0" ry="0" rx="0" height="1550" width="10" stroke="#666" fill="#EDF2AE" y="1437" x="1101"></rect></g><g><rect class="note" ry="0" rx="0" height="74" width="227" stroke="#666" fill="#EDF2AE" y="1681" x="1131"></rect><text style="font-family: arial; font-size: 24px; font-weight: 400;" dy="1em" class="noteText" alignment-baseline="middle" dominant-baseline="middle" text-anchor="middle" y="1686" x="1245"><tspan x="1245">generate</tspan></text><text style="font-family: arial; font-size: 24px; font-weight: 400;" dy="1em" class="noteText" alignment-baseline="middle" dominant-baseline="middle" text-anchor="middle" y="1713" x="1245"><tspan x="1245">test case sequence</tspan></text></g><g><rect class="note" ry="0" rx="0" height="47" width="157" stroke="#666" fill="#EDF2AE" y="2127" x="1131"></rect><text style="font-family: arial; font-size: 24px; font-weight: 400;" dy="1em" class="noteText" alignment-baseline="middle" dominant-baseline="middle" text-anchor="middle" y="2132" x="1210"><tspan x="1210">run test case</tspan></text></g><g><rect class="note" ry="0" rx="0" height="74" width="196" stroke="#666" fill="#EDF2AE" y="2248" x="556"></rect><text style="font-family: arial; font-size: 24px; font-weight: 400;" dy="1em" class="noteText" alignment-baseline="middle" dominant-baseline="middle" text-anchor="middle" y="2253" x="654"><tspan x="654">append case log</tspan></text><text style="font-family: arial; font-size: 24px; font-weight: 400;" dy="1em" class="noteText" alignment-baseline="middle" dominant-baseline="middle" text-anchor="middle" y="2280" x="654"><tspan x="654">to test results</tspan></text></g><g><rect class="note" ry="0" rx="0" height="74" width="168" stroke="#666" fill="#EDF2AE" y="2490" x="1131"></rect><text style="font-family: arial; font-size: 24px; font-weight: 400;" dy="1em" class="noteText" alignment-baseline="middle" dominant-baseline="middle" text-anchor="middle" y="2495" x="1215"><tspan x="1215">proceed to</tspan></text><text style="font-family: arial; font-size: 24px; font-weight: 400;" dy="1em" class="noteText" alignment-baseline="middle" dominant-baseline="middle" text-anchor="middle" y="2522" x="1215"><tspan x="1215">next test case</tspan></text></g><g><rect class="note" ry="0" rx="0" height="47" width="150" stroke="#666" fill="#EDF2AE" y="2626" x="1131"></rect><text style="font-family: arial; font-size: 24px; font-weight: 400;" dy="1em" class="noteText" alignment-baseline="middle" dominant-baseline="middle" text-anchor="middle" y="2631" x="1206"><tspan x="1206">exit loop</tspan></text></g><g><rect class="note" ry="0" rx="0" height="74" width="169" stroke="#666" fill="#EDF2AE" y="2735" x="1131"></rect><text style="font-family: arial; font-size: 24px; font-weight: 400;" dy="1em" class="noteText" alignment-baseline="middle" dominant-baseline="middle" text-anchor="middle" y="2740" x="1216"><tspan x="1216">notify ops and </tspan></text><text style="font-family: arial; font-size: 24px; font-weight: 400;" dy="1em" class="noteText" alignment-baseline="middle" dominant-baseline="middle" text-anchor="middle" y="2767" x="1216"><tspan x="1216">exit loop</tspan></text></g><g><line class="loopLine" y2="2332" x2="1310" y1="2332" x1="1121"></line><line class="loopLine" y2="2819" x2="1310" y1="2332" x1="1310"></line><line class="loopLine" y2="2819" x2="1310" y1="2819" x1="1121"></line><line class="loopLine" y2="2819" x2="1121" y1="2332" x1="1121"></line><line style="stroke-dasharray: 3, 3;" class="loopLine" y2="2443" x2="1310" y1="2443" x1="1121"></line><line style="stroke-dasharray: 3, 3;" class="loopLine" y2="2579" x2="1310" y1="2579" x1="1121"></line><line style="stroke-dasharray: 3, 3;" class="loopLine" y2="2688" x2="1310" y1="2688" x1="1121"></line><polygon class="labelBox" points="1121,2332 1171,2332 1171,2345 1162.6,2352 1121,2352"></polygon><text style="font-family: arial; font-size: 24px; font-weight: 400;" class="labelText" alignment-baseline="middle" dominant-baseline="middle" text-anchor="middle" y="2345" x="1146">critical</text><text style="font-family: arial; font-size: 24px; font-weight: 400;" class="loopText" text-anchor="middle" y="2350" x="1240.5"><tspan x="1240.5">[Check</tspan></text><text style="font-family: arial; font-size: 24px; font-weight: 400;" class="loopText" text-anchor="middle" y="2376" x="1240.5"><tspan x="1240.5">test case</tspan></text><text style="font-family: arial; font-size: 24px; font-weight: 400;" class="loopText" text-anchor="middle" y="2403" x="1240.5"><tspan x="1240.5">result]</tspan></text><text style="font-family: arial; font-size: 24px; font-weight: 400;" class="loopText" text-anchor="middle" y="2461" x="1215.5">[Pass]</text><text style="font-family: arial; font-size: 24px; font-weight: 400;" class="loopText" text-anchor="middle" y="2597" x="1215.5">[Fail]</text><text style="font-family: arial; font-size: 24px; font-weight: 400;" class="loopText" text-anchor="middle" y="2706" x="1215.5">[Error]</text></g><g><line class="loopLine" y2="1765" x2="1320" y1="1765" x1="546"></line><line class="loopLine" y2="2829" x2="1320" y1="1765" x1="1320"></line><line class="loopLine" y2="2829" x2="1320" y1="2829" x1="546"></line><line class="loopLine" y2="2829" x2="546" y1="1765" x1="546"></line><polygon class="labelBox" points="546,1765 596,1765 596,1778 587.6,1785 546,1785"></polygon><text style="font-family: arial; font-size: 24px; font-weight: 400;" class="labelText" alignment-baseline="middle" dominant-baseline="middle" text-anchor="middle" y="1778" x="571">loop</text><text style="font-family: arial; font-size: 24px; font-weight: 400;" class="loopText" text-anchor="middle" y="1783" x="958"><tspan x="958">[for each test case]</tspan></text></g><g><rect class="note" ry="0" rx="0" height="74" width="329" stroke="#666" fill="#EDF2AE" y="2903" x="423"></rect><text style="font-family: arial; font-size: 24px; font-weight: 400;" dy="1em" class="noteText" alignment-baseline="middle" dominant-baseline="middle" text-anchor="middle" y="2908" x="588"><tspan x="588">set test status to "completed"</tspan></text><text style="font-family: arial; font-size: 24px; font-weight: 400;" dy="1em" class="noteText" alignment-baseline="middle" dominant-baseline="middle" text-anchor="middle" y="2935" x="588"><tspan x="588">and result to pass|fail|error</tspan></text></g><g><line class="loopLine" y2="1629" x2="1368" y1="1629" x1="413"></line><line class="loopLine" y2="2987" x2="1368" y1="1629" x1="1368"></line><line class="loopLine" y2="2987" x2="1368" y1="2987" x1="413"></line><line class="loopLine" y2="2987" x2="413" y1="1629" x1="413"></line><polygon class="labelBox" points="413,1629 463,1629 463,1642 454.6,1649 413,1649"></polygon><text style="font-family: arial; font-size: 24px; font-weight: 400;" class="labelText" alignment-baseline="middle" dominant-baseline="middle" text-anchor="middle" y="1642" x="438">loop</text><text style="font-family: arial; font-size: 24px; font-weight: 400;" class="loopText" text-anchor="middle" y="1647" x="915.5"><tspan x="915.5">[for each test]</tspan></text></g><g><line class="loopLine" y2="1395" x2="1378" y1="1395" x1="403"></line><line class="loopLine" y2="2997" x2="1378" y1="1395" x1="1378"></line><line class="loopLine" y2="2997" x2="1378" y1="2997" x1="403"></line><line class="loopLine" y2="2997" x2="403" y1="1395" x1="403"></line><polygon class="labelBox" points="403,1395 453,1395 453,1408 444.6,1415 403,1415"></polygon><text style="font-family: arial; font-size: 24px; font-weight: 400;" class="labelText" alignment-baseline="middle" dominant-baseline="middle" text-anchor="middle" y="1408" x="428">loop</text><text style="font-family: arial; font-size: 24px; font-weight: 400;" class="loopText" text-anchor="middle" y="1413" x="915.5"><tspan x="915.5">[1m]</tspan></text></g><g><rect class="activation0" ry="0" rx="0" height="560" width="10" stroke="#666" fill="#EDF2AE" y="3047" x="70"></rect></g><g><rect class="note" ry="0" rx="0" height="47" width="185" stroke="#666" fill="#EDF2AE" y="3225" x="-135"></rect><text style="font-family: arial; font-size: 24px; font-weight: 400;" dy="1em" class="noteText" alignment-baseline="middle" dominant-baseline="middle" text-anchor="middle" y="3230" x="-42"><tspan x="-42">outer loop ends</tspan></text></g><g><rect class="note" ry="0" rx="0" height="74" width="322" stroke="#666" fill="#EDF2AE" y="3334" x="-272"></rect><text style="font-family: arial; font-size: 24px; font-weight: 400;" dy="1em" class="noteText" alignment-baseline="middle" dominant-baseline="middle" text-anchor="middle" y="3339" x="-111"><tspan x="-111">applicant resolves issue and</tspan></text><text style="font-family: arial; font-size: 24px; font-weight: 400;" dy="1em" class="noteText" alignment-baseline="middle" dominant-baseline="middle" text-anchor="middle" y="3366" x="-111"><tspan x="-111">outer loop repeats</tspan></text></g><g><rect class="note" ry="0" rx="0" height="127" width="253" stroke="#666" fill="#EDF2AE" y="3470" x="-203"></rect><text style="font-family: arial; font-size: 24px; font-weight: 400;" dy="1em" class="noteText" alignment-baseline="middle" dominant-baseline="middle" text-anchor="middle" y="3475" x="-76"><tspan x="-76">ICANN resolves issue</tspan></text><text style="font-family: arial; font-size: 24px; font-weight: 400;" dy="1em" class="noteText" alignment-baseline="middle" dominant-baseline="middle" text-anchor="middle" y="3502" x="-76"><tspan x="-76">and notifies Applicant</tspan></text><text style="font-family: arial; font-size: 24px; font-weight: 400;" dy="1em" class="noteText" alignment-baseline="middle" dominant-baseline="middle" text-anchor="middle" y="3529" x="-76"><tspan x="-76">out-of-band, and</tspan></text><text style="font-family: arial; font-size: 24px; font-weight: 400;" dy="1em" class="noteText" alignment-baseline="middle" dominant-baseline="middle" text-anchor="middle" y="3555" x="-76"><tspan x="-76">outer loop repeats</tspan></text></g><g><line class="loopLine" y2="3121" x2="60" y1="3121" x1="-282"></line><line class="loopLine" y2="3607" x2="60" y1="3121" x1="60"></line><line class="loopLine" y2="3607" x2="60" y1="3607" x1="-282"></line><line class="loopLine" y2="3607" x2="-282" y1="3121" x1="-282"></line><line style="stroke-dasharray: 3, 3;" class="loopLine" y2="3178" x2="60" y1="3178" x1="-282"></line><line style="stroke-dasharray: 3, 3;" class="loopLine" y2="3287" x2="60" y1="3287" x1="-282"></line><line style="stroke-dasharray: 3, 3;" class="loopLine" y2="3423" x2="60" y1="3423" x1="-282"></line><polygon class="labelBox" points="-282,3121 -232,3121 -232,3134 -240.4,3141 -282,3141"></polygon><text style="font-family: arial; font-size: 24px; font-weight: 400;" class="labelText" alignment-baseline="middle" dominant-baseline="middle" text-anchor="middle" y="3134" x="-257">critical</text><text style="font-family: arial; font-size: 24px; font-weight: 400;" class="loopText" text-anchor="middle" y="3139" x="-86"><tspan x="-86">[Check test result]</tspan></text><text style="font-family: arial; font-size: 24px; font-weight: 400;" class="loopText" text-anchor="middle" y="3196" x="-111">[Pass]</text><text style="font-family: arial; font-size: 24px; font-weight: 400;" class="loopText" text-anchor="middle" y="3305" x="-111">[Fail]</text><text style="font-family: arial; font-size: 24px; font-weight: 400;" class="loopText" text-anchor="middle" y="3441" x="-111">[Error]</text></g><g><line class="loopLine" y2="3032" x2="788" y1="3032" x1="-292"></line><line class="loopLine" y2="3617" x2="788" y1="3032" x1="788"></line><line class="loopLine" y2="3617" x2="788" y1="3617" x1="-292"></line><line class="loopLine" y2="3617" x2="-292" y1="3032" x1="-292"></line><polygon class="labelBox" points="-292,3032 -242,3032 -242,3045 -250.4,3052 -292,3052"></polygon><text style="font-family: arial; font-size: 24px; font-weight: 400;" class="labelText" alignment-baseline="middle" dominant-baseline="middle" text-anchor="middle" y="3045" x="-267">loop</text><text style="font-family: arial; font-size: 24px; font-weight: 400;" class="loopText" text-anchor="middle" y="3050" x="273"><tspan x="273">​</tspan></text></g><g><line class="loopLine" y2="1343" x2="1388" y1="1343" x1="-302"></line><line class="loopLine" y2="3627" x2="1388" y1="1343" x1="1388"></line><line class="loopLine" y2="3627" x2="1388" y1="3627" x1="-302"></line><line class="loopLine" y2="3627" x2="-302" y1="1343" x1="-302"></line><line style="stroke-dasharray: 3, 3;" class="loopLine" y2="3012" x2="1388" y1="3012" x1="-302"></line><polygon class="labelBox" points="-302,1343 -252,1343 -252,1356 -260.4,1363 -302,1363"></polygon><text style="font-family: arial; font-size: 24px; font-weight: 400;" class="labelText" alignment-baseline="middle" dominant-baseline="middle" text-anchor="middle" y="1356" x="-277">par</text><text style="font-family: arial; font-size: 24px; font-weight: 400;" class="loopText" text-anchor="middle" y="1361" x="568"><tspan x="568">[Test run]</tspan></text></g><g><line class="loopLine" y2="901" x2="1398" y1="901" x1="-312"></line><line class="loopLine" y2="3637" x2="1398" y1="901" x1="1398"></line><line class="loopLine" y2="3637" x2="1398" y1="3637" x1="-312"></line><line class="loopLine" y2="3637" x2="-312" y1="901" x1="-312"></line><polygon class="labelBox" points="-312,901 -262,901 -262,914 -270.4,921 -312,921"></polygon><text style="font-family: arial; font-size: 24px; font-weight: 400;" class="labelText" alignment-baseline="middle" dominant-baseline="middle" text-anchor="middle" y="914" x="-287">loop</text><text style="font-family: arial; font-size: 24px; font-weight: 400;" class="loopText" text-anchor="middle" y="919" x="568"><tspan x="568">[Applicant self-</tspan></text><text style="font-family: arial; font-size: 24px; font-weight: 400;" class="loopText" text-anchor="middle" y="945" x="568"><tspan x="568">administers the test]</tspan></text></g><g><line class="loopLine" y2="607" x2="1408" y1="607" x1="-322"></line><line class="loopLine" y2="3647" x2="1408" y1="607" x1="1408"></line><line class="loopLine" y2="3647" x2="1408" y1="3647" x1="-322"></line><line class="loopLine" y2="3647" x2="-322" y1="607" x1="-322"></line><line style="stroke-dasharray: 3, 3;" class="loopLine" y2="881" x2="1408" y1="881" x1="-322"></line><polygon class="labelBox" points="-322,607 -272,607 -272,620 -280.4,627 -322,627"></polygon><text style="font-family: arial; font-size: 24px; font-weight: 400;" class="labelText" alignment-baseline="middle" dominant-baseline="middle" text-anchor="middle" y="620" x="-297">par</text><text style="font-family: arial; font-size: 24px; font-weight: 400;" class="loopText" text-anchor="middle" y="625" x="568"><tspan x="568">[RSP Portal monitors</tspan></text><text style="font-family: arial; font-size: 24px; font-weight: 400;" class="loopText" text-anchor="middle" y="651" x="568"><tspan x="568">for test result]</tspan></text></g><text style="font-family: arial; font-size: 24px; font-weight: 400;" dy="1em" class="messageText" alignment-baseline="middle" dominant-baseline="middle" text-anchor="middle" y="80" x="235">submit RSP</text><text style="font-family: arial; font-size: 24px; font-weight: 400;" dy="1em" class="messageText" alignment-baseline="middle" dominant-baseline="middle" text-anchor="middle" y="107" x="235">evaluation application</text><line style="fill: none;" marker-end="url(#arrowhead)" stroke="none" stroke-width="2" class="messageLine0" y2="156" x2="394" y1="156" x1="76"></line><text style="font-family: arial; font-size: 24px; font-weight: 400;" dy="1em" class="messageText" alignment-baseline="middle" dominant-baseline="middle" text-anchor="middle" y="255" x="588">create new</text><text style="font-family: arial; font-size: 24px; font-weight: 400;" dy="1em" class="messageText" alignment-baseline="middle" dominant-baseline="middle" text-anchor="middle" y="282" x="588">test request</text><line style="fill: none;" marker-end="url(#arrowhead)" stroke="none" stroke-width="2" class="messageLine0" y2="331" x2="773" y1="331" x1="403"></line><text style="font-family: arial; font-size: 24px; font-weight: 400;" dy="1em" class="messageText" alignment-baseline="middle" dominant-baseline="middle" text-anchor="middle" y="430" x="589">respond with</text><text style="font-family: arial; font-size: 24px; font-weight: 400;" dy="1em" class="messageText" alignment-baseline="middle" dominant-baseline="middle" text-anchor="middle" y="457" x="589">test request ID</text><line style="fill: none;" marker-end="url(#arrowhead)" stroke="none" stroke-width="2" class="messageLine0" y2="506" x2="406" y1="506" x1="772"></line><text style="font-family: arial; font-size: 24px; font-weight: 400;" dy="1em" class="messageText" alignment-baseline="middle" dominant-baseline="middle" text-anchor="middle" y="521" x="236">provide test</text><text style="font-family: arial; font-size: 24px; font-weight: 400;" dy="1em" class="messageText" alignment-baseline="middle" dominant-baseline="middle" text-anchor="middle" y="548" x="236">request ID to applicant</text><line style="fill: none;" marker-end="url(#arrowhead)" stroke="none" stroke-width="2" class="messageLine0" y2="597" x2="79" y1="597" x1="393"></line><text style="font-family: arial; font-size: 24px; font-weight: 400;" dy="1em" class="messageText" alignment-baseline="middle" dominant-baseline="middle" text-anchor="middle" y="743" x="588">query for results</text><line style="fill: none;" marker-end="url(#arrowhead)" stroke="none" stroke-width="2" class="messageLine0" y2="792" x2="773" y1="792" x1="403"></line><text style="font-family: arial; font-size: 24px; font-weight: 400;" dy="1em" class="messageText" alignment-baseline="middle" dominant-baseline="middle" text-anchor="middle" y="817" x="236">notice of completed test</text><line style="fill: none;" marker-end="url(#arrowhead)" stroke="none" stroke-width="2" class="messageLine0" y2="866" x2="79" y1="866" x1="393"></line><text style="font-family: arial; font-size: 24px; font-weight: 400;" dy="1em" class="messageText" alignment-baseline="middle" dominant-baseline="middle" text-anchor="middle" y="985" x="427">submit input parameters</text><line style="fill: none;" marker-end="url(#arrowhead)" stroke="none" stroke-width="2" class="messageLine0" y2="1034" x2="773" y1="1034" x1="80"></line><text style="font-family: arial; font-size: 24px; font-weight: 400;" dy="1em" class="messageText" alignment-baseline="middle" dominant-baseline="middle" text-anchor="middle" y="1106" x="427">upload files</text><line style="fill: none;" marker-end="url(#arrowhead)" stroke="none" stroke-width="2" class="messageLine0" y2="1155" x2="773" y1="1155" x1="80"></line><text style="font-family: arial; font-size: 24px; font-weight: 400;" dy="1em" class="messageText" alignment-baseline="middle" dominant-baseline="middle" text-anchor="middle" y="1227" x="427">initiate test</text><line style="fill: none;" marker-end="url(#arrowhead)" stroke="none" stroke-width="2" class="messageLine0" y2="1276" x2="773" y1="1276" x1="80"></line><text style="font-family: arial; font-size: 24px; font-weight: 400;" dy="1em" class="messageText" alignment-baseline="middle" dominant-baseline="middle" text-anchor="middle" y="1452" x="941">query for</text><text style="font-family: arial; font-size: 24px; font-weight: 400;" dy="1em" class="messageText" alignment-baseline="middle" dominant-baseline="middle" text-anchor="middle" y="1479" x="941">"ready" tests</text><line style="fill: none;" marker-end="url(#arrowhead)" stroke="none" stroke-width="2" class="messageLine0" y2="1528" x2="781" y1="1528" x1="1101"></line><text style="font-family: arial; font-size: 24px; font-weight: 400;" dy="1em" class="messageText" alignment-baseline="middle" dominant-baseline="middle" text-anchor="middle" y="1543" x="938">respond with</text><text style="font-family: arial; font-size: 24px; font-weight: 400;" dy="1em" class="messageText" alignment-baseline="middle" dominant-baseline="middle" text-anchor="middle" y="1570" x="938">list of tests</text><line style="fill: none;" marker-end="url(#arrowhead)" stroke="none" stroke-width="2" class="messageLine0" y2="1619" x2="1098" y1="1619" x1="778"></line><text style="font-family: arial; font-size: 24px; font-weight: 400;" dy="1em" class="messageText" alignment-baseline="middle" dominant-baseline="middle" text-anchor="middle" y="1822" x="941">request input</text><text style="font-family: arial; font-size: 24px; font-weight: 400;" dy="1em" class="messageText" alignment-baseline="middle" dominant-baseline="middle" text-anchor="middle" y="1849" x="941">parameters</text><line style="fill: none;" marker-end="url(#arrowhead)" stroke="none" stroke-width="2" class="messageLine0" y2="1898" x2="781" y1="1898" x1="1101"></line><text style="font-family: arial; font-size: 24px; font-weight: 400;" dy="1em" class="messageText" alignment-baseline="middle" dominant-baseline="middle" text-anchor="middle" y="1913" x="938">respond with</text><text style="font-family: arial; font-size: 24px; font-weight: 400;" dy="1em" class="messageText" alignment-baseline="middle" dominant-baseline="middle" text-anchor="middle" y="1940" x="938">input parameters</text><line style="fill: none;" marker-end="url(#arrowhead)" stroke="none" stroke-width="2" class="messageLine0" y2="1989" x2="1098" y1="1989" x1="778"></line><text style="font-family: arial; font-size: 24px; font-weight: 400;" dy="1em" class="messageText" alignment-baseline="middle" dominant-baseline="middle" text-anchor="middle" y="2004" x="941">request files</text><line style="fill: none;" marker-end="url(#arrowhead)" stroke="none" stroke-width="2" class="messageLine0" y2="2053" x2="781" y1="2053" x1="1101"></line><text style="font-family: arial; font-size: 24px; font-weight: 400;" dy="1em" class="messageText" alignment-baseline="middle" dominant-baseline="middle" text-anchor="middle" y="2068" x="938">respond with file data</text><line style="fill: none;" marker-end="url(#arrowhead)" stroke="none" stroke-width="2" class="messageLine0" y2="2117" x2="1098" y1="2117" x1="778"></line><text style="font-family: arial; font-size: 24px; font-weight: 400;" dy="1em" class="messageText" alignment-baseline="middle" dominant-baseline="middle" text-anchor="middle" y="2189" x="941">submit test case log</text><line style="fill: none;" marker-end="url(#arrowhead)" stroke="none" stroke-width="2" class="messageLine0" y2="2238" x2="781" y1="2238" x1="1101"></line><text style="font-family: arial; font-size: 24px; font-weight: 400;" dy="1em" class="messageText" alignment-baseline="middle" dominant-baseline="middle" text-anchor="middle" y="2844" x="941">update test result</text><line style="fill: none;" marker-end="url(#arrowhead)" stroke="none" stroke-width="2" class="messageLine0" y2="2893" x2="781" y1="2893" x1="1101"></line><text style="font-family: arial; font-size: 24px; font-weight: 400;" dy="1em" class="messageText" alignment-baseline="middle" dominant-baseline="middle" text-anchor="middle" y="3062" x="427">poll for results</text><line style="fill: none;" marker-end="url(#arrowhead)" stroke="none" stroke-width="2" class="messageLine0" y2="3111" x2="773" y1="3111" x1="80"></line></svg>