<svg aria-roledescription="sequence" role="graphics-document document" viewBox="-258 -10 1619 3434" style="max-width: 1619px; background-color: white;" xmlns:xlink="http://www.w3.org/1999/xlink" xmlns="http://www.w3.org/2000/svg" width="100%" id="my-svg"><g><rect class="actor" ry="3" rx="3" height="65" width="150" stroke="#666" fill="#eaeaea" y="3348" x="981"/><text style="text-anchor: middle; font-size: 16px; font-weight: 400;" class="actor" alignment-baseline="central" dominant-baseline="central" y="3380.5" x="1056"><tspan dy="0" x="1056">RST-TOS</tspan></text></g><g><rect class="actor" ry="3" rx="3" height="65" width="150" stroke="#666" fill="#eaeaea" y="3348" x="781"/><text style="text-anchor: middle; font-size: 16px; font-weight: 400;" class="actor" alignment-baseline="central" dominant-baseline="central" y="3380.5" x="856"><tspan dy="0" x="856">IDN Team</tspan></text></g><g><rect class="actor" ry="3" rx="3" height="65" width="150" stroke="#666" fill="#eaeaea" y="3348" x="494"/><text style="text-anchor: middle; font-size: 16px; font-weight: 400;" class="actor" alignment-baseline="central" dominant-baseline="central" y="3380.5" x="569"><tspan dy="0" x="569">RST-API</tspan></text></g><g><rect class="actor" ry="3" rx="3" height="65" width="150" stroke="#666" fill="#eaeaea" y="3348" x="223"/><text style="text-anchor: middle; font-size: 16px; font-weight: 400;" class="actor" alignment-baseline="central" dominant-baseline="central" y="3380.5" x="298"><tspan dy="0" x="298">RSP Portal</tspan></text></g><g><rect class="actor" ry="3" rx="3" height="65" width="150" stroke="#666" fill="#eaeaea" y="3348" x="0"/><text style="text-anchor: middle; font-size: 16px; font-weight: 400;" class="actor" alignment-baseline="central" dominant-baseline="central" y="3380.5" x="75"><tspan dy="0" x="75">Applicant</tspan></text></g><g><line stroke="#999" stroke-width="0.5px" class="200" y2="3348" x2="1056" y1="5" x1="1056" id="actor4"/><g id="root-4"><rect class="actor" ry="3" rx="3" height="65" width="150" stroke="#666" fill="#eaeaea" y="0" x="981"/><text style="text-anchor: middle; font-size: 16px; font-weight: 400;" class="actor" alignment-baseline="central" dominant-baseline="central" y="32.5" x="1056"><tspan dy="0" x="1056">RST-TOS</tspan></text></g></g><g><line stroke="#999" stroke-width="0.5px" class="200" y2="3348" x2="856" y1="5" x1="856" id="actor3"/><g id="root-3"><rect class="actor" ry="3" rx="3" height="65" width="150" stroke="#666" fill="#eaeaea" y="0" x="781"/><text style="text-anchor: middle; font-size: 16px; font-weight: 400;" class="actor" alignment-baseline="central" dominant-baseline="central" y="32.5" x="856"><tspan dy="0" x="856">IDN Team</tspan></text></g></g><g><line stroke="#999" stroke-width="0.5px" class="200" y2="3348" x2="569" y1="5" x1="569" id="actor2"/><g id="root-2"><rect class="actor" ry="3" rx="3" height="65" width="150" stroke="#666" fill="#eaeaea" y="0" x="494"/><text style="text-anchor: middle; font-size: 16px; font-weight: 400;" class="actor" alignment-baseline="central" dominant-baseline="central" y="32.5" x="569"><tspan dy="0" x="569">RST-API</tspan></text></g></g><g><line stroke="#999" stroke-width="0.5px" class="200" y2="3348" x2="298" y1="5" x1="298" id="actor1"/><g id="root-1"><rect class="actor" ry="3" rx="3" height="65" width="150" stroke="#666" fill="#eaeaea" y="0" x="223"/><text style="text-anchor: middle; font-size: 16px; font-weight: 400;" class="actor" alignment-baseline="central" dominant-baseline="central" y="32.5" x="298"><tspan dy="0" x="298">RSP Portal</tspan></text></g></g><g><line stroke="#999" stroke-width="0.5px" class="200" y2="3348" x2="75" y1="5" x1="75" id="actor0"/><g id="root-0"><rect class="actor" ry="3" rx="3" height="65" width="150" stroke="#666" fill="#eaeaea" y="0" x="0"/><text style="text-anchor: middle; font-size: 16px; font-weight: 400;" class="actor" alignment-baseline="central" dominant-baseline="central" y="32.5" x="75"><tspan dy="0" x="75">Applicant</tspan></text></g></g><style>#my-svg{font-family:"trebuchet ms",verdana,arial,sans-serif;font-size:16px;fill:#333;}#my-svg .error-icon{fill:#552222;}#my-svg .error-text{fill:#552222;stroke:#552222;}#my-svg .edge-thickness-normal{stroke-width:2px;}#my-svg .edge-thickness-thick{stroke-width:3.5px;}#my-svg .edge-pattern-solid{stroke-dasharray:0;}#my-svg .edge-pattern-dashed{stroke-dasharray:3;}#my-svg .edge-pattern-dotted{stroke-dasharray:2;}#my-svg .marker{fill:#333333;stroke:#333333;}#my-svg .marker.cross{stroke:#333333;}#my-svg svg{font-family:"trebuchet ms",verdana,arial,sans-serif;font-size:16px;}#my-svg .actor{stroke:hsl(259.6261682243, 59.7765363128%, 87.9019607843%);fill:#ECECFF;}#my-svg text.actor&gt;tspan{fill:black;stroke:none;}#my-svg .actor-line{stroke:grey;}#my-svg .messageLine0{stroke-width:1.5;stroke-dasharray:none;stroke:#333;}#my-svg .messageLine1{stroke-width:1.5;stroke-dasharray:2,2;stroke:#333;}#my-svg #arrowhead path{fill:#333;stroke:#333;}#my-svg .sequenceNumber{fill:white;}#my-svg #sequencenumber{fill:#333;}#my-svg #crosshead path{fill:#333;stroke:#333;}#my-svg .messageText{fill:#333;stroke:none;}#my-svg .labelBox{stroke:hsl(259.6261682243, 59.7765363128%, 87.9019607843%);fill:#ECECFF;}#my-svg .labelText,#my-svg .labelText&gt;tspan{fill:black;stroke:none;}#my-svg .loopText,#my-svg .loopText&gt;tspan{fill:black;stroke:none;}#my-svg .loopLine{stroke-width:2px;stroke-dasharray:2,2;stroke:hsl(259.6261682243, 59.7765363128%, 87.9019607843%);fill:hsl(259.6261682243, 59.7765363128%, 87.9019607843%);}#my-svg .note{stroke:#aaaa33;fill:#fff5ad;}#my-svg .noteText,#my-svg .noteText&gt;tspan{fill:black;stroke:none;}#my-svg .activation0{fill:#f4f4f4;stroke:#666;}#my-svg .activation1{fill:#f4f4f4;stroke:#666;}#my-svg .activation2{fill:#f4f4f4;stroke:#666;}#my-svg .actorPopupMenu{position:absolute;}#my-svg .actorPopupMenuPanel{position:absolute;fill:#ECECFF;box-shadow:0px 8px 16px 0px rgba(0,0,0,0.2);filter:drop-shadow(3px 5px 2px rgb(0 0 0 / 0.4));}#my-svg .actor-man line{stroke:hsl(259.6261682243, 59.7765363128%, 87.9019607843%);fill:#ECECFF;}#my-svg .actor-man circle,#my-svg line{stroke:hsl(259.6261682243, 59.7765363128%, 87.9019607843%);fill:#ECECFF;stroke-width:2px;}#my-svg :root{--mermaid-font-family:"trebuchet ms",verdana,arial,sans-serif;}</style><g/><defs><symbol height="24" width="24" id="computer"><path d="M2 2v13h20v-13h-20zm18 11h-16v-9h16v9zm-10.228 6l.466-1h3.524l.467 1h-4.457zm14.228 3h-24l2-6h2.104l-1.33 4h18.45l-1.297-4h2.073l2 6zm-5-10h-14v-7h14v7z" transform="scale(.5)"/></symbol></defs><defs><symbol clip-rule="evenodd" fill-rule="evenodd" id="database"><path d="M12.258.001l.256.004.255.005.253.008.251.01.249.012.247.015.246.016.242.019.241.02.239.023.236.024.233.027.231.028.229.031.225.032.223.034.22.036.217.038.214.04.211.041.208.043.205.045.201.046.198.048.194.05.191.051.187.053.183.054.18.056.175.057.172.059.168.06.163.061.16.063.155.064.15.066.074.033.073.033.071.034.07.034.069.035.068.035.067.035.066.035.064.036.064.036.062.036.06.036.06.037.058.037.058.037.055.038.055.038.053.038.052.038.051.039.05.039.048.039.047.039.045.04.044.04.043.04.041.04.04.041.039.041.037.041.036.041.034.041.033.042.032.042.03.042.029.042.027.042.026.043.024.043.023.043.021.043.02.043.018.044.017.043.015.044.013.044.012.044.011.045.009.044.007.045.006.045.004.045.002.045.001.045v17l-.001.045-.002.045-.004.045-.006.045-.007.045-.009.044-.011.045-.012.044-.013.044-.015.044-.017.043-.018.044-.02.043-.021.043-.023.043-.024.043-.026.043-.027.042-.029.042-.03.042-.032.042-.033.042-.034.041-.036.041-.037.041-.039.041-.04.041-.041.04-.043.04-.044.04-.045.04-.047.039-.048.039-.05.039-.051.039-.052.038-.053.038-.055.038-.055.038-.058.037-.058.037-.06.037-.06.036-.062.036-.064.036-.064.036-.066.035-.067.035-.068.035-.069.035-.07.034-.071.034-.073.033-.074.033-.15.066-.155.064-.16.063-.163.061-.168.06-.172.059-.175.057-.18.056-.183.054-.187.053-.191.051-.194.05-.198.048-.201.046-.205.045-.208.043-.211.041-.214.04-.217.038-.22.036-.223.034-.225.032-.229.031-.231.028-.233.027-.236.024-.239.023-.241.02-.242.019-.246.016-.247.015-.249.012-.251.01-.253.008-.255.005-.256.004-.258.001-.258-.001-.256-.004-.255-.005-.253-.008-.251-.01-.249-.012-.247-.015-.245-.016-.243-.019-.241-.02-.238-.023-.236-.024-.234-.027-.231-.028-.228-.031-.226-.032-.223-.034-.22-.036-.217-.038-.214-.04-.211-.041-.208-.043-.204-.045-.201-.046-.198-.048-.195-.05-.19-.051-.187-.053-.184-.054-.179-.056-.176-.057-.172-.059-.167-.06-.164-.061-.159-.063-.155-.064-.151-.066-.074-.033-.072-.033-.072-.034-.07-.034-.069-.035-.068-.035-.067-.035-.066-.035-.064-.036-.063-.036-.062-.036-.061-.036-.06-.037-.058-.037-.057-.037-.056-.038-.055-.038-.053-.038-.052-.038-.051-.039-.049-.039-.049-.039-.046-.039-.046-.04-.044-.04-.043-.04-.041-.04-.04-.041-.039-.041-.037-.041-.036-.041-.034-.041-.033-.042-.032-.042-.03-.042-.029-.042-.027-.042-.026-.043-.024-.043-.023-.043-.021-.043-.02-.043-.018-.044-.017-.043-.015-.044-.013-.044-.012-.044-.011-.045-.009-.044-.007-.045-.006-.045-.004-.045-.002-.045-.001-.045v-17l.001-.045.002-.045.004-.045.006-.045.007-.045.009-.044.011-.045.012-.044.013-.044.015-.044.017-.043.018-.044.02-.043.021-.043.023-.043.024-.043.026-.043.027-.042.029-.042.03-.042.032-.042.033-.042.034-.041.036-.041.037-.041.039-.041.04-.041.041-.04.043-.04.044-.04.046-.04.046-.039.049-.039.049-.039.051-.039.052-.038.053-.038.055-.038.056-.038.057-.037.058-.037.06-.037.061-.036.062-.036.063-.036.064-.036.066-.035.067-.035.068-.035.069-.035.07-.034.072-.034.072-.033.074-.033.151-.066.155-.064.159-.063.164-.061.167-.06.172-.059.176-.057.179-.056.184-.054.187-.053.19-.051.195-.05.198-.048.201-.046.204-.045.208-.043.211-.041.214-.04.217-.038.22-.036.223-.034.226-.032.228-.031.231-.028.234-.027.236-.024.238-.023.241-.02.243-.019.245-.016.247-.015.249-.012.251-.01.253-.008.255-.005.256-.004.258-.001.258.001zm-9.258 20.499v.01l.001.021.003.021.004.022.005.021.006.022.007.022.009.023.01.022.011.023.012.023.013.023.015.023.016.024.017.023.018.024.019.024.021.024.022.025.023.024.024.025.052.049.056.05.061.051.066.051.07.051.075.051.079.052.084.052.088.052.092.052.097.052.102.051.105.052.11.052.114.051.119.051.123.051.127.05.131.05.135.05.139.048.144.049.147.047.152.047.155.047.16.045.163.045.167.043.171.043.176.041.178.041.183.039.187.039.19.037.194.035.197.035.202.033.204.031.209.03.212.029.216.027.219.025.222.024.226.021.23.02.233.018.236.016.24.015.243.012.246.01.249.008.253.005.256.004.259.001.26-.001.257-.004.254-.005.25-.008.247-.011.244-.012.241-.014.237-.016.233-.018.231-.021.226-.021.224-.024.22-.026.216-.027.212-.028.21-.031.205-.031.202-.034.198-.034.194-.036.191-.037.187-.039.183-.04.179-.04.175-.042.172-.043.168-.044.163-.045.16-.046.155-.046.152-.047.148-.048.143-.049.139-.049.136-.05.131-.05.126-.05.123-.051.118-.052.114-.051.11-.052.106-.052.101-.052.096-.052.092-.052.088-.053.083-.051.079-.052.074-.052.07-.051.065-.051.06-.051.056-.05.051-.05.023-.024.023-.025.021-.024.02-.024.019-.024.018-.024.017-.024.015-.023.014-.024.013-.023.012-.023.01-.023.01-.022.008-.022.006-.022.006-.022.004-.022.004-.021.001-.021.001-.021v-4.127l-.077.055-.08.053-.083.054-.085.053-.087.052-.09.052-.093.051-.095.05-.097.05-.1.049-.102.049-.105.048-.106.047-.109.047-.111.046-.114.045-.115.045-.118.044-.12.043-.122.042-.124.042-.126.041-.128.04-.13.04-.132.038-.134.038-.135.037-.138.037-.139.035-.142.035-.143.034-.144.033-.147.032-.148.031-.15.03-.151.03-.153.029-.154.027-.156.027-.158.026-.159.025-.161.024-.162.023-.163.022-.165.021-.166.02-.167.019-.169.018-.169.017-.171.016-.173.015-.173.014-.175.013-.175.012-.177.011-.178.01-.179.008-.179.008-.181.006-.182.005-.182.004-.184.003-.184.002h-.37l-.184-.002-.184-.003-.182-.004-.182-.005-.181-.006-.179-.008-.179-.008-.178-.01-.176-.011-.176-.012-.175-.013-.173-.014-.172-.015-.171-.016-.17-.017-.169-.018-.167-.019-.166-.02-.165-.021-.163-.022-.162-.023-.161-.024-.159-.025-.157-.026-.156-.027-.155-.027-.153-.029-.151-.03-.15-.03-.148-.031-.146-.032-.145-.033-.143-.034-.141-.035-.14-.035-.137-.037-.136-.037-.134-.038-.132-.038-.13-.04-.128-.04-.126-.041-.124-.042-.122-.042-.12-.044-.117-.043-.116-.045-.113-.045-.112-.046-.109-.047-.106-.047-.105-.048-.102-.049-.1-.049-.097-.05-.095-.05-.093-.052-.09-.051-.087-.052-.085-.053-.083-.054-.08-.054-.077-.054v4.127zm0-5.654v.011l.001.021.003.021.004.021.005.022.006.022.007.022.009.022.01.022.011.023.012.023.013.023.015.024.016.023.017.024.018.024.019.024.021.024.022.024.023.025.024.024.052.05.056.05.061.05.066.051.07.051.075.052.079.051.084.052.088.052.092.052.097.052.102.052.105.052.11.051.114.051.119.052.123.05.127.051.131.05.135.049.139.049.144.048.147.048.152.047.155.046.16.045.163.045.167.044.171.042.176.042.178.04.183.04.187.038.19.037.194.036.197.034.202.033.204.032.209.03.212.028.216.027.219.025.222.024.226.022.23.02.233.018.236.016.24.014.243.012.246.01.249.008.253.006.256.003.259.001.26-.001.257-.003.254-.006.25-.008.247-.01.244-.012.241-.015.237-.016.233-.018.231-.02.226-.022.224-.024.22-.025.216-.027.212-.029.21-.03.205-.032.202-.033.198-.035.194-.036.191-.037.187-.039.183-.039.179-.041.175-.042.172-.043.168-.044.163-.045.16-.045.155-.047.152-.047.148-.048.143-.048.139-.05.136-.049.131-.05.126-.051.123-.051.118-.051.114-.052.11-.052.106-.052.101-.052.096-.052.092-.052.088-.052.083-.052.079-.052.074-.051.07-.052.065-.051.06-.05.056-.051.051-.049.023-.025.023-.024.021-.025.02-.024.019-.024.018-.024.017-.024.015-.023.014-.023.013-.024.012-.022.01-.023.01-.023.008-.022.006-.022.006-.022.004-.021.004-.022.001-.021.001-.021v-4.139l-.077.054-.08.054-.083.054-.085.052-.087.053-.09.051-.093.051-.095.051-.097.05-.1.049-.102.049-.105.048-.106.047-.109.047-.111.046-.114.045-.115.044-.118.044-.12.044-.122.042-.124.042-.126.041-.128.04-.13.039-.132.039-.134.038-.135.037-.138.036-.139.036-.142.035-.143.033-.144.033-.147.033-.148.031-.15.03-.151.03-.153.028-.154.028-.156.027-.158.026-.159.025-.161.024-.162.023-.163.022-.165.021-.166.02-.167.019-.169.018-.169.017-.171.016-.173.015-.173.014-.175.013-.175.012-.177.011-.178.009-.179.009-.179.007-.181.007-.182.005-.182.004-.184.003-.184.002h-.37l-.184-.002-.184-.003-.182-.004-.182-.005-.181-.007-.179-.007-.179-.009-.178-.009-.176-.011-.176-.012-.175-.013-.173-.014-.172-.015-.171-.016-.17-.017-.169-.018-.167-.019-.166-.02-.165-.021-.163-.022-.162-.023-.161-.024-.159-.025-.157-.026-.156-.027-.155-.028-.153-.028-.151-.03-.15-.03-.148-.031-.146-.033-.145-.033-.143-.033-.141-.035-.14-.036-.137-.036-.136-.037-.134-.038-.132-.039-.13-.039-.128-.04-.126-.041-.124-.042-.122-.043-.12-.043-.117-.044-.116-.044-.113-.046-.112-.046-.109-.046-.106-.047-.105-.048-.102-.049-.1-.049-.097-.05-.095-.051-.093-.051-.09-.051-.087-.053-.085-.052-.083-.054-.08-.054-.077-.054v4.139zm0-5.666v.011l.001.02.003.022.004.021.005.022.006.021.007.022.009.023.01.022.011.023.012.023.013.023.015.023.016.024.017.024.018.023.019.024.021.025.022.024.023.024.024.025.052.05.056.05.061.05.066.051.07.051.075.052.079.051.084.052.088.052.092.052.097.052.102.052.105.051.11.052.114.051.119.051.123.051.127.05.131.05.135.05.139.049.144.048.147.048.152.047.155.046.16.045.163.045.167.043.171.043.176.042.178.04.183.04.187.038.19.037.194.036.197.034.202.033.204.032.209.03.212.028.216.027.219.025.222.024.226.021.23.02.233.018.236.017.24.014.243.012.246.01.249.008.253.006.256.003.259.001.26-.001.257-.003.254-.006.25-.008.247-.01.244-.013.241-.014.237-.016.233-.018.231-.02.226-.022.224-.024.22-.025.216-.027.212-.029.21-.03.205-.032.202-.033.198-.035.194-.036.191-.037.187-.039.183-.039.179-.041.175-.042.172-.043.168-.044.163-.045.16-.045.155-.047.152-.047.148-.048.143-.049.139-.049.136-.049.131-.051.126-.05.123-.051.118-.052.114-.051.11-.052.106-.052.101-.052.096-.052.092-.052.088-.052.083-.052.079-.052.074-.052.07-.051.065-.051.06-.051.056-.05.051-.049.023-.025.023-.025.021-.024.02-.024.019-.024.018-.024.017-.024.015-.023.014-.024.013-.023.012-.023.01-.022.01-.023.008-.022.006-.022.006-.022.004-.022.004-.021.001-.021.001-.021v-4.153l-.077.054-.08.054-.083.053-.085.053-.087.053-.09.051-.093.051-.095.051-.097.05-.1.049-.102.048-.105.048-.106.048-.109.046-.111.046-.114.046-.115.044-.118.044-.12.043-.122.043-.124.042-.126.041-.128.04-.13.039-.132.039-.134.038-.135.037-.138.036-.139.036-.142.034-.143.034-.144.033-.147.032-.148.032-.15.03-.151.03-.153.028-.154.028-.156.027-.158.026-.159.024-.161.024-.162.023-.163.023-.165.021-.166.02-.167.019-.169.018-.169.017-.171.016-.173.015-.173.014-.175.013-.175.012-.177.01-.178.01-.179.009-.179.007-.181.006-.182.006-.182.004-.184.003-.184.001-.185.001-.185-.001-.184-.001-.184-.003-.182-.004-.182-.006-.181-.006-.179-.007-.179-.009-.178-.01-.176-.01-.176-.012-.175-.013-.173-.014-.172-.015-.171-.016-.17-.017-.169-.018-.167-.019-.166-.02-.165-.021-.163-.023-.162-.023-.161-.024-.159-.024-.157-.026-.156-.027-.155-.028-.153-.028-.151-.03-.15-.03-.148-.032-.146-.032-.145-.033-.143-.034-.141-.034-.14-.036-.137-.036-.136-.037-.134-.038-.132-.039-.13-.039-.128-.041-.126-.041-.124-.041-.122-.043-.12-.043-.117-.044-.116-.044-.113-.046-.112-.046-.109-.046-.106-.048-.105-.048-.102-.048-.1-.05-.097-.049-.095-.051-.093-.051-.09-.052-.087-.052-.085-.053-.083-.053-.08-.054-.077-.054v4.153zm8.74-8.179l-.257.004-.254.005-.25.008-.247.011-.244.012-.241.014-.237.016-.233.018-.231.021-.226.022-.224.023-.22.026-.216.027-.212.028-.21.031-.205.032-.202.033-.198.034-.194.036-.191.038-.187.038-.183.04-.179.041-.175.042-.172.043-.168.043-.163.045-.16.046-.155.046-.152.048-.148.048-.143.048-.139.049-.136.05-.131.05-.126.051-.123.051-.118.051-.114.052-.11.052-.106.052-.101.052-.096.052-.092.052-.088.052-.083.052-.079.052-.074.051-.07.052-.065.051-.06.05-.056.05-.051.05-.023.025-.023.024-.021.024-.02.025-.019.024-.018.024-.017.023-.015.024-.014.023-.013.023-.012.023-.01.023-.01.022-.008.022-.006.023-.006.021-.004.022-.004.021-.001.021-.001.021.001.021.001.021.004.021.004.022.006.021.006.023.008.022.01.022.01.023.012.023.013.023.014.023.015.024.017.023.018.024.019.024.02.025.021.024.023.024.023.025.051.05.056.05.06.05.065.051.07.052.074.051.079.052.083.052.088.052.092.052.096.052.101.052.106.052.11.052.114.052.118.051.123.051.126.051.131.05.136.05.139.049.143.048.148.048.152.048.155.046.16.046.163.045.168.043.172.043.175.042.179.041.183.04.187.038.191.038.194.036.198.034.202.033.205.032.21.031.212.028.216.027.22.026.224.023.226.022.231.021.233.018.237.016.241.014.244.012.247.011.25.008.254.005.257.004.26.001.26-.001.257-.004.254-.005.25-.008.247-.011.244-.012.241-.014.237-.016.233-.018.231-.021.226-.022.224-.023.22-.026.216-.027.212-.028.21-.031.205-.032.202-.033.198-.034.194-.036.191-.038.187-.038.183-.04.179-.041.175-.042.172-.043.168-.043.163-.045.16-.046.155-.046.152-.048.148-.048.143-.048.139-.049.136-.05.131-.05.126-.051.123-.051.118-.051.114-.052.11-.052.106-.052.101-.052.096-.052.092-.052.088-.052.083-.052.079-.052.074-.051.07-.052.065-.051.06-.05.056-.05.051-.05.023-.025.023-.024.021-.024.02-.025.019-.024.018-.024.017-.023.015-.024.014-.023.013-.023.012-.023.01-.023.01-.022.008-.022.006-.023.006-.021.004-.022.004-.021.001-.021.001-.021-.001-.021-.001-.021-.004-.021-.004-.022-.006-.021-.006-.023-.008-.022-.01-.022-.01-.023-.012-.023-.013-.023-.014-.023-.015-.024-.017-.023-.018-.024-.019-.024-.02-.025-.021-.024-.023-.024-.023-.025-.051-.05-.056-.05-.06-.05-.065-.051-.07-.052-.074-.051-.079-.052-.083-.052-.088-.052-.092-.052-.096-.052-.101-.052-.106-.052-.11-.052-.114-.052-.118-.051-.123-.051-.126-.051-.131-.05-.136-.05-.139-.049-.143-.048-.148-.048-.152-.048-.155-.046-.16-.046-.163-.045-.168-.043-.172-.043-.175-.042-.179-.041-.183-.04-.187-.038-.191-.038-.194-.036-.198-.034-.202-.033-.205-.032-.21-.031-.212-.028-.216-.027-.22-.026-.224-.023-.226-.022-.231-.021-.233-.018-.237-.016-.241-.014-.244-.012-.247-.011-.25-.008-.254-.005-.257-.004-.26-.001-.26.001z" transform="scale(.5)"/></symbol></defs><defs><symbol height="24" width="24" id="clock"><path d="M12 2c5.514 0 10 4.486 10 10s-4.486 10-10 10-10-4.486-10-10 4.486-10 10-10zm0-2c-6.627 0-12 5.373-12 12s5.373 12 12 12 12-5.373 12-12-5.373-12-12-12zm5.848 12.459c.202.038.202.333.001.372-1.907.361-6.045 1.111-6.547 1.111-.719 0-1.301-.582-1.301-1.301 0-.512.77-5.447 1.125-7.445.034-.192.312-.181.343.014l.985 6.238 5.394 1.011z" transform="scale(.5)"/></symbol></defs><defs><marker orient="auto" markerHeight="12" markerWidth="12" markerUnits="userSpaceOnUse" refY="5" refX="7.9" id="arrowhead"><path d="M 0 0 L 10 5 L 0 10 z"/></marker></defs><defs><marker refY="4.5" refX="4" orient="auto" markerHeight="8" markerWidth="15" id="crosshead"><path style="stroke-dasharray: 0, 0;" d="M 1,2 L 6,7 M 6,2 L 1,7" stroke-width="1pt" stroke="#000000" fill="none"/></marker></defs><defs><marker orient="auto" markerHeight="28" markerWidth="20" refY="7" refX="15.5" id="filled-head"><path d="M 18,7 L9,13 L14,7 L9,1 Z"/></marker></defs><defs><marker orient="auto" markerHeight="40" markerWidth="60" refY="15" refX="15" id="sequencenumber"><circle r="6" cy="15" cx="15"/></marker></defs><g><rect class="activation0" ry="0" rx="0" height="342" width="10" stroke="#666" fill="#EDF2AE" y="131" x="293"/></g><g><rect class="note" ry="0" rx="0" height="57" width="150" stroke="#666" fill="#EDF2AE" y="139" x="323"/><text style="font-size: 16px; font-weight: 400;" dy="1em" class="noteText" alignment-baseline="middle" dominant-baseline="middle" text-anchor="middle" y="144" x="398"><tspan x="398">ICANN org</tspan></text><text style="font-size: 16px; font-weight: 400;" dy="1em" class="noteText" alignment-baseline="middle" dominant-baseline="middle" text-anchor="middle" y="163" x="398"><tspan x="398">reviews application</tspan></text></g><g><rect class="activation0" ry="0" rx="0" height="129" width="10" stroke="#666" fill="#EDF2AE" y="280" x="564"/></g><g><rect class="note" ry="0" rx="0" height="57" width="150" stroke="#666" fill="#EDF2AE" y="288" x="594"/><text style="font-size: 16px; font-weight: 400;" dy="1em" class="noteText" alignment-baseline="middle" dominant-baseline="middle" text-anchor="middle" y="293" x="669"><tspan x="669">create test in</tspan></text><text style="font-size: 16px; font-weight: 400;" dy="1em" class="noteText" alignment-baseline="middle" dominant-baseline="middle" text-anchor="middle" y="312" x="669"><tspan x="669">database</tspan></text></g><g><rect class="activation0" ry="0" rx="0" height="163" width="10" stroke="#666" fill="#EDF2AE" y="536" x="293"/></g><g><line class="loopLine" y2="544" x2="580" y1="544" x1="283"/><line class="loopLine" y2="653" x2="580" y1="544" x1="580"/><line class="loopLine" y2="653" x2="580" y1="653" x1="283"/><line class="loopLine" y2="653" x2="283" y1="544" x1="283"/><polygon class="labelBox" points="283,544 333,544 333,557 324.6,564 283,564"/><text style="font-size: 16px; font-weight: 400;" class="labelText" alignment-baseline="middle" dominant-baseline="middle" text-anchor="middle" y="557" x="308">loop</text><text style="font-size: 16px; font-weight: 400;" class="loopText" text-anchor="middle" y="562" x="456.5"><tspan x="456.5">[1h]</tspan></text></g><g><line class="loopLine" y2="779" x2="867" y1="779" x1="558"/><line class="loopLine" y2="934" x2="867" y1="779" x1="867"/><line class="loopLine" y2="934" x2="867" y1="934" x1="558"/><line class="loopLine" y2="934" x2="558" y1="779" x1="558"/><polygon class="labelBox" points="558,779 608,779 608,792 599.6,799 558,799"/><text style="font-size: 16px; font-weight: 400;" class="labelText" alignment-baseline="middle" dominant-baseline="middle" text-anchor="middle" y="792" x="583">opt</text><text style="font-size: 16px; font-weight: 400;" class="loopText" text-anchor="middle" y="797" x="737.5"><tspan x="737.5">[Custom IDN test labels]</tspan></text></g><g><rect class="activation0" ry="0" rx="0" height="339" width="10" stroke="#666" fill="#EDF2AE" y="1020" x="70"/></g><g><rect class="note" ry="0" rx="0" height="39" width="150" stroke="#666" fill="#EDF2AE" y="1094" x="594"/><text style="font-size: 16px; font-weight: 400;" dy="1em" class="noteText" alignment-baseline="middle" dominant-baseline="middle" text-anchor="middle" y="1099" x="669"><tspan x="669">store parameters</tspan></text></g><g><rect class="note" ry="0" rx="0" height="39" width="150" stroke="#666" fill="#EDF2AE" y="1207" x="594"/><text style="font-size: 16px; font-weight: 400;" dy="1em" class="noteText" alignment-baseline="middle" dominant-baseline="middle" text-anchor="middle" y="1212" x="669"><tspan x="669">store files</tspan></text></g><g><rect class="note" ry="0" rx="0" height="39" width="224" stroke="#666" fill="#EDF2AE" y="1320" x="594"/><text style="font-size: 16px; font-weight: 400;" dy="1em" class="noteText" alignment-baseline="middle" dominant-baseline="middle" text-anchor="middle" y="1325" x="706"><tspan x="706">set test status to "ready-to-start"</tspan></text></g><g><rect class="activation0" ry="0" rx="0" height="1295" width="10" stroke="#666" fill="#EDF2AE" y="1449" x="1051"/></g><g><rect class="note" ry="0" rx="0" height="57" width="150" stroke="#666" fill="#EDF2AE" y="1650" x="1081"/><text style="font-size: 16px; font-weight: 400;" dy="1em" class="noteText" alignment-baseline="middle" dominant-baseline="middle" text-anchor="middle" y="1655" x="1156"><tspan x="1156">generate</tspan></text><text style="font-size: 16px; font-weight: 400;" dy="1em" class="noteText" alignment-baseline="middle" dominant-baseline="middle" text-anchor="middle" y="1674" x="1156"><tspan x="1156">test case sequence</tspan></text></g><g><rect class="note" ry="0" rx="0" height="39" width="150" stroke="#666" fill="#EDF2AE" y="2018" x="1081"/><text style="font-size: 16px; font-weight: 400;" dy="1em" class="noteText" alignment-baseline="middle" dominant-baseline="middle" text-anchor="middle" y="2023" x="1156"><tspan x="1156">run test case</tspan></text></g><g><rect class="note" ry="0" rx="0" height="57" width="150" stroke="#666" fill="#EDF2AE" y="2131" x="394"/><text style="font-size: 16px; font-weight: 400;" dy="1em" class="noteText" alignment-baseline="middle" dominant-baseline="middle" text-anchor="middle" y="2136" x="469"><tspan x="469">append case log</tspan></text><text style="font-size: 16px; font-weight: 400;" dy="1em" class="noteText" alignment-baseline="middle" dominant-baseline="middle" text-anchor="middle" y="2155" x="469"><tspan x="469">to test results</tspan></text></g><g><rect class="note" ry="0" rx="0" height="57" width="150" stroke="#666" fill="#EDF2AE" y="2320" x="1081"/><text style="font-size: 16px; font-weight: 400;" dy="1em" class="noteText" alignment-baseline="middle" dominant-baseline="middle" text-anchor="middle" y="2325" x="1156"><tspan x="1156">proceed to</tspan></text><text style="font-size: 16px; font-weight: 400;" dy="1em" class="noteText" alignment-baseline="middle" dominant-baseline="middle" text-anchor="middle" y="2344" x="1156"><tspan x="1156">next test case</tspan></text></g><g><rect class="note" ry="0" rx="0" height="39" width="150" stroke="#666" fill="#EDF2AE" y="2432" x="1081"/><text style="font-size: 16px; font-weight: 400;" dy="1em" class="noteText" alignment-baseline="middle" dominant-baseline="middle" text-anchor="middle" y="2437" x="1156"><tspan x="1156">exit loop</tspan></text></g><g><rect class="note" ry="0" rx="0" height="57" width="150" stroke="#666" fill="#EDF2AE" y="2526" x="1081"/><text style="font-size: 16px; font-weight: 400;" dy="1em" class="noteText" alignment-baseline="middle" dominant-baseline="middle" text-anchor="middle" y="2531" x="1156"><tspan x="1156">notify ops and </tspan></text><text style="font-size: 16px; font-weight: 400;" dy="1em" class="noteText" alignment-baseline="middle" dominant-baseline="middle" text-anchor="middle" y="2550" x="1156"><tspan x="1156">exit loop</tspan></text></g><g><line class="loopLine" y2="2198" x2="1241" y1="2198" x1="1071"/><line class="loopLine" y2="2593" x2="1241" y1="2198" x1="1241"/><line class="loopLine" y2="2593" x2="1241" y1="2593" x1="1071"/><line class="loopLine" y2="2593" x2="1071" y1="2198" x1="1071"/><line style="stroke-dasharray: 3, 3;" class="loopLine" y2="2264" x2="1241" y1="2264" x1="1071"/><line style="stroke-dasharray: 3, 3;" class="loopLine" y2="2392" x2="1241" y1="2392" x1="1071"/><line style="stroke-dasharray: 3, 3;" class="loopLine" y2="2486" x2="1241" y1="2486" x1="1071"/><polygon class="labelBox" points="1071,2198 1121,2198 1121,2211 1112.6,2218 1071,2218"/><text style="font-size: 16px; font-weight: 400;" class="labelText" alignment-baseline="middle" dominant-baseline="middle" text-anchor="middle" y="2211" x="1096">critical</text><text style="font-size: 16px; font-weight: 400;" class="loopText" text-anchor="middle" y="2216" x="1181"><tspan x="1181">[Check test</tspan></text><text style="font-size: 16px; font-weight: 400;" class="loopText" text-anchor="middle" y="2234" x="1181"><tspan x="1181">case result]</tspan></text><text style="font-size: 16px; font-weight: 400;" class="loopText" text-anchor="middle" y="2282" x="1156">[Pass|Skip|A-</text><text style="font-size: 16px; font-weight: 400;" class="loopText" text-anchor="middle" y="2300" x="1156">bort]</text><text style="font-size: 16px; font-weight: 400;" class="loopText" text-anchor="middle" y="2410" x="1156">[Fail]</text><text style="font-size: 16px; font-weight: 400;" class="loopText" text-anchor="middle" y="2504" x="1156">[Exception]</text></g><g><line class="loopLine" y2="1717" x2="1251" y1="1717" x1="384"/><line class="loopLine" y2="2603" x2="1251" y1="1717" x1="1251"/><line class="loopLine" y2="2603" x2="1251" y1="2603" x1="384"/><line class="loopLine" y2="2603" x2="384" y1="1717" x1="384"/><polygon class="labelBox" points="384,1717 434,1717 434,1730 425.6,1737 384,1737"/><text style="font-size: 16px; font-weight: 400;" class="labelText" alignment-baseline="middle" dominant-baseline="middle" text-anchor="middle" y="1730" x="409">loop</text><text style="font-size: 16px; font-weight: 400;" class="loopText" text-anchor="middle" y="1735" x="842.5"><tspan x="842.5">[for each test case]</tspan></text></g><g><rect class="note" ry="0" rx="0" height="57" width="221" stroke="#666" fill="#EDF2AE" y="2677" x="323"/><text style="font-size: 16px; font-weight: 400;" dy="1em" class="noteText" alignment-baseline="middle" dominant-baseline="middle" text-anchor="middle" y="2682" x="434"><tspan x="434">set test status to "completed"</tspan></text><text style="font-size: 16px; font-weight: 400;" dy="1em" class="noteText" alignment-baseline="middle" dominant-baseline="middle" text-anchor="middle" y="2701" x="434"><tspan x="434">and result to pass|fail|exception</tspan></text></g><g><line class="loopLine" y2="1605" x2="1261" y1="1605" x1="313"/><line class="loopLine" y2="2744" x2="1261" y1="1605" x1="1261"/><line class="loopLine" y2="2744" x2="1261" y1="2744" x1="313"/><line class="loopLine" y2="2744" x2="313" y1="1605" x1="313"/><polygon class="labelBox" points="313,1605 363,1605 363,1618 354.6,1625 313,1625"/><text style="font-size: 16px; font-weight: 400;" class="labelText" alignment-baseline="middle" dominant-baseline="middle" text-anchor="middle" y="1618" x="338">loop</text><text style="font-size: 16px; font-weight: 400;" class="loopText" text-anchor="middle" y="1623" x="812"><tspan x="812">[for each test]</tspan></text></g><g><line class="loopLine" y2="1414" x2="1271" y1="1414" x1="303"/><line class="loopLine" y2="2754" x2="1271" y1="1414" x1="1271"/><line class="loopLine" y2="2754" x2="1271" y1="2754" x1="303"/><line class="loopLine" y2="2754" x2="303" y1="1414" x1="303"/><polygon class="labelBox" points="303,1414 353,1414 353,1427 344.6,1434 303,1434"/><text style="font-size: 16px; font-weight: 400;" class="labelText" alignment-baseline="middle" dominant-baseline="middle" text-anchor="middle" y="1427" x="328">loop</text><text style="font-size: 16px; font-weight: 400;" class="loopText" text-anchor="middle" y="1432" x="812"><tspan x="812">[1m]</tspan></text></g><g><rect class="activation0" ry="0" rx="0" height="474" width="10" stroke="#666" fill="#EDF2AE" y="2804" x="70"/></g><g><rect class="note" ry="0" rx="0" height="39" width="150" stroke="#666" fill="#EDF2AE" y="2968" x="-100"/><text style="font-size: 16px; font-weight: 400;" dy="1em" class="noteText" alignment-baseline="middle" dominant-baseline="middle" text-anchor="middle" y="2973" x="-25"><tspan x="-25">outer loop ends</tspan></text></g><g><rect class="note" ry="0" rx="0" height="57" width="198" stroke="#666" fill="#EDF2AE" y="3062" x="-148"/><text style="font-size: 16px; font-weight: 400;" dy="1em" class="noteText" alignment-baseline="middle" dominant-baseline="middle" text-anchor="middle" y="3067" x="-49"><tspan x="-49">applicant resolves issue and</tspan></text><text style="font-size: 16px; font-weight: 400;" dy="1em" class="noteText" alignment-baseline="middle" dominant-baseline="middle" text-anchor="middle" y="3086" x="-49"><tspan x="-49">outer loop repeats</tspan></text></g><g><rect class="note" ry="0" rx="0" height="94" width="163" stroke="#666" fill="#EDF2AE" y="3174" x="-113"/><text style="font-size: 16px; font-weight: 400;" dy="1em" class="noteText" alignment-baseline="middle" dominant-baseline="middle" text-anchor="middle" y="3179" x="-31"><tspan x="-31">ICANN resolves issue</tspan></text><text style="font-size: 16px; font-weight: 400;" dy="1em" class="noteText" alignment-baseline="middle" dominant-baseline="middle" text-anchor="middle" y="3198" x="-31"><tspan x="-31">and notifies Applicant</tspan></text><text style="font-size: 16px; font-weight: 400;" dy="1em" class="noteText" alignment-baseline="middle" dominant-baseline="middle" text-anchor="middle" y="3216" x="-31"><tspan x="-31">out-of-band, and</tspan></text><text style="font-size: 16px; font-weight: 400;" dy="1em" class="noteText" alignment-baseline="middle" dominant-baseline="middle" text-anchor="middle" y="3235" x="-31"><tspan x="-31">outer loop repeats</tspan></text></g><g><line class="loopLine" y2="2878" x2="60" y1="2878" x1="-158"/><line class="loopLine" y2="3278" x2="60" y1="2878" x1="60"/><line class="loopLine" y2="3278" x2="60" y1="3278" x1="-158"/><line class="loopLine" y2="3278" x2="-158" y1="2878" x1="-158"/><line style="stroke-dasharray: 3, 3;" class="loopLine" y2="2928" x2="60" y1="2928" x1="-158"/><line style="stroke-dasharray: 3, 3;" class="loopLine" y2="3022" x2="60" y1="3022" x1="-158"/><line style="stroke-dasharray: 3, 3;" class="loopLine" y2="3134" x2="60" y1="3134" x1="-158"/><polygon class="labelBox" points="-158,2878 -108,2878 -108,2891 -116.4,2898 -158,2898"/><text style="font-size: 16px; font-weight: 400;" class="labelText" alignment-baseline="middle" dominant-baseline="middle" text-anchor="middle" y="2891" x="-133">critical</text><text style="font-size: 16px; font-weight: 400;" class="loopText" text-anchor="middle" y="2896" x="-24"><tspan x="-24">[Check test result]</tspan></text><text style="font-size: 16px; font-weight: 400;" class="loopText" text-anchor="middle" y="2946" x="-49">[Pass]</text><text style="font-size: 16px; font-weight: 400;" class="loopText" text-anchor="middle" y="3040" x="-49">[Fail]</text><text style="font-size: 16px; font-weight: 400;" class="loopText" text-anchor="middle" y="3152" x="-49">[Exception]</text></g><g><line class="loopLine" y2="2789" x2="580" y1="2789" x1="-168"/><line class="loopLine" y2="3288" x2="580" y1="2789" x1="580"/><line class="loopLine" y2="3288" x2="580" y1="3288" x1="-168"/><line class="loopLine" y2="3288" x2="-168" y1="2789" x1="-168"/><polygon class="labelBox" points="-168,2789 -118,2789 -118,2802 -126.4,2809 -168,2809"/><text style="font-size: 16px; font-weight: 400;" class="labelText" alignment-baseline="middle" dominant-baseline="middle" text-anchor="middle" y="2802" x="-143">loop</text><text style="font-size: 16px; font-weight: 400;" class="loopText" text-anchor="middle" y="2807" x="231"><tspan x="231">​</tspan></text></g><g><line class="loopLine" y2="1369" x2="1281" y1="1369" x1="-178"/><line class="loopLine" y2="3298" x2="1281" y1="1369" x1="1281"/><line class="loopLine" y2="3298" x2="1281" y1="3298" x1="-178"/><line class="loopLine" y2="3298" x2="-178" y1="1369" x1="-178"/><line style="stroke-dasharray: 3, 3;" class="loopLine" y2="2769" x2="1281" y1="2769" x1="-178"/><polygon class="labelBox" points="-178,1369 -128,1369 -128,1382 -136.4,1389 -178,1389"/><text style="font-size: 16px; font-weight: 400;" class="labelText" alignment-baseline="middle" dominant-baseline="middle" text-anchor="middle" y="1382" x="-153">par</text><text style="font-size: 16px; font-weight: 400;" class="loopText" text-anchor="middle" y="1387" x="576.5"><tspan x="576.5">[Test run]</tspan></text></g><g><line class="loopLine" y2="969" x2="1291" y1="969" x1="-188"/><line class="loopLine" y2="3308" x2="1291" y1="969" x1="1291"/><line class="loopLine" y2="3308" x2="1291" y1="3308" x1="-188"/><line class="loopLine" y2="3308" x2="-188" y1="969" x1="-188"/><polygon class="labelBox" points="-188,969 -138,969 -138,982 -146.4,989 -188,989"/><text style="font-size: 16px; font-weight: 400;" class="labelText" alignment-baseline="middle" dominant-baseline="middle" text-anchor="middle" y="982" x="-163">loop</text><text style="font-size: 16px; font-weight: 400;" class="loopText" text-anchor="middle" y="987" x="576.5"><tspan x="576.5">[Applicant self-</tspan></text><text style="font-size: 16px; font-weight: 400;" class="loopText" text-anchor="middle" y="1005" x="576.5"><tspan x="576.5">administers the test]</tspan></text></g><g><line class="loopLine" y2="734" x2="1301" y1="734" x1="-198"/><line class="loopLine" y2="3318" x2="1301" y1="734" x1="1301"/><line class="loopLine" y2="3318" x2="1301" y1="3318" x1="-198"/><line class="loopLine" y2="3318" x2="-198" y1="734" x1="-198"/><line style="stroke-dasharray: 3, 3;" class="loopLine" y2="949" x2="1301" y1="949" x1="-198"/><polygon class="labelBox" points="-198,734 -148,734 -148,747 -156.4,754 -198,754"/><text style="font-size: 16px; font-weight: 400;" class="labelText" alignment-baseline="middle" dominant-baseline="middle" text-anchor="middle" y="747" x="-173">par</text><text style="font-size: 16px; font-weight: 400;" class="loopText" text-anchor="middle" y="752" x="576.5"><tspan x="576.5">[IDN Table Label Management]</tspan></text></g><g><line class="loopLine" y2="483" x2="1311" y1="483" x1="-208"/><line class="loopLine" y2="3328" x2="1311" y1="483" x1="1311"/><line class="loopLine" y2="3328" x2="1311" y1="3328" x1="-208"/><line class="loopLine" y2="3328" x2="-208" y1="483" x1="-208"/><line style="stroke-dasharray: 3, 3;" class="loopLine" y2="714" x2="1311" y1="714" x1="-208"/><polygon class="labelBox" points="-208,483 -158,483 -158,496 -166.4,503 -208,503"/><text style="font-size: 16px; font-weight: 400;" class="labelText" alignment-baseline="middle" dominant-baseline="middle" text-anchor="middle" y="496" x="-183">par</text><text style="font-size: 16px; font-weight: 400;" class="loopText" text-anchor="middle" y="501" x="576.5"><tspan x="576.5">[RSP Portal monitors</tspan></text><text style="font-size: 16px; font-weight: 400;" class="loopText" text-anchor="middle" y="519" x="576.5"><tspan x="576.5">for test result]</tspan></text></g><text style="font-size: 16px; font-weight: 400;" dy="1em" class="messageText" alignment-baseline="middle" dominant-baseline="middle" text-anchor="middle" y="80" x="185">submit RSP</text><text style="font-size: 16px; font-weight: 400;" dy="1em" class="messageText" alignment-baseline="middle" dominant-baseline="middle" text-anchor="middle" y="99" x="185">evaluation application</text><line style="fill: none;" marker-end="url(#arrowhead)" stroke="none" stroke-width="2" class="messageLine0" y2="129" x2="294" y1="129" x1="76"/><text style="font-size: 16px; font-weight: 400;" dy="1em" class="messageText" alignment-baseline="middle" dominant-baseline="middle" text-anchor="middle" y="211" x="434">create new</text><text style="font-size: 16px; font-weight: 400;" dy="1em" class="messageText" alignment-baseline="middle" dominant-baseline="middle" text-anchor="middle" y="230" x="434">test request</text><text style="font-size: 16px; font-weight: 400;" dy="1em" class="messageText" alignment-baseline="middle" dominant-baseline="middle" text-anchor="middle" y="248" x="434">[createTest()]</text><line style="fill: none;" marker-end="url(#arrowhead)" stroke="none" stroke-width="2" class="messageLine0" y2="278" x2="565" y1="278" x1="303"/><text style="font-size: 16px; font-weight: 400;" dy="1em" class="messageText" alignment-baseline="middle" dominant-baseline="middle" text-anchor="middle" y="360" x="435">respond with</text><text style="font-size: 16px; font-weight: 400;" dy="1em" class="messageText" alignment-baseline="middle" dominant-baseline="middle" text-anchor="middle" y="379" x="435">test request ID</text><line style="fill: none;" marker-end="url(#arrowhead)" stroke="none" stroke-width="2" class="messageLine0" y2="409" x2="306" y1="409" x1="564"/><text style="font-size: 16px; font-weight: 400;" dy="1em" class="messageText" alignment-baseline="middle" dominant-baseline="middle" text-anchor="middle" y="424" x="186">provide test</text><text style="font-size: 16px; font-weight: 400;" dy="1em" class="messageText" alignment-baseline="middle" dominant-baseline="middle" text-anchor="middle" y="443" x="186">request ID to applicant</text><line style="fill: none;" marker-end="url(#arrowhead)" stroke="none" stroke-width="2" class="messageLine0" y2="473" x2="79" y1="473" x1="293"/><text style="font-size: 16px; font-weight: 400;" dy="1em" class="messageText" alignment-baseline="middle" dominant-baseline="middle" text-anchor="middle" y="594" x="434">query for results</text><text style="font-size: 16px; font-weight: 400;" dy="1em" class="messageText" alignment-baseline="middle" dominant-baseline="middle" text-anchor="middle" y="613" x="434">[getTestInfo()]</text><line style="fill: none;" marker-end="url(#arrowhead)" stroke="none" stroke-width="2" class="messageLine0" y2="643" x2="565" y1="643" x1="303"/><text style="font-size: 16px; font-weight: 400;" dy="1em" class="messageText" alignment-baseline="middle" dominant-baseline="middle" text-anchor="middle" y="668" x="186">notice of completed test</text><line style="fill: none;" marker-end="url(#arrowhead)" stroke="none" stroke-width="2" class="messageLine0" y2="699" x2="79" y1="699" x1="293"/><text style="font-size: 16px; font-weight: 400;" dy="1em" class="messageText" alignment-baseline="middle" dominant-baseline="middle" text-anchor="middle" y="829" x="711">email notice of missing test labels</text><line style="fill: none;" marker-end="url(#arrowhead)" stroke="none" stroke-width="2" class="messageLine0" y2="860" x2="852" y1="860" x1="570"/><text style="font-size: 16px; font-weight: 400;" dy="1em" class="messageText" alignment-baseline="middle" dominant-baseline="middle" text-anchor="middle" y="875" x="714">submit labels</text><text style="font-size: 16px; font-weight: 400;" dy="1em" class="messageText" alignment-baseline="middle" dominant-baseline="middle" text-anchor="middle" y="894" x="714">[submitIDNLabels()]</text><line style="fill: none;" marker-end="url(#arrowhead)" stroke="none" stroke-width="2" class="messageLine0" y2="924" x2="573" y1="924" x1="855"/><text style="font-size: 16px; font-weight: 400;" dy="1em" class="messageText" alignment-baseline="middle" dominant-baseline="middle" text-anchor="middle" y="1035" x="323">submit input parameters</text><text style="font-size: 16px; font-weight: 400;" dy="1em" class="messageText" alignment-baseline="middle" dominant-baseline="middle" text-anchor="middle" y="1054" x="323">[setTestInputParameters()]</text><line style="fill: none;" marker-end="url(#arrowhead)" stroke="none" stroke-width="2" class="messageLine0" y2="1084" x2="565" y1="1084" x1="80"/><text style="font-size: 16px; font-weight: 400;" dy="1em" class="messageText" alignment-baseline="middle" dominant-baseline="middle" text-anchor="middle" y="1148" x="323">upload files</text><text style="font-size: 16px; font-weight: 400;" dy="1em" class="messageText" alignment-baseline="middle" dominant-baseline="middle" text-anchor="middle" y="1167" x="323">[uploadFile()]</text><line style="fill: none;" marker-end="url(#arrowhead)" stroke="none" stroke-width="2" class="messageLine0" y2="1197" x2="565" y1="1197" x1="80"/><text style="font-size: 16px; font-weight: 400;" dy="1em" class="messageText" alignment-baseline="middle" dominant-baseline="middle" text-anchor="middle" y="1261" x="323">initiate test</text><text style="font-size: 16px; font-weight: 400;" dy="1em" class="messageText" alignment-baseline="middle" dominant-baseline="middle" text-anchor="middle" y="1280" x="323">[setTestStatus()]</text><line style="fill: none;" marker-end="url(#arrowhead)" stroke="none" stroke-width="2" class="messageLine0" y2="1310" x2="565" y1="1310" x1="80"/><text style="font-size: 16px; font-weight: 400;" dy="1em" class="messageText" alignment-baseline="middle" dominant-baseline="middle" text-anchor="middle" y="1464" x="812">query for</text><text style="font-size: 16px; font-weight: 400;" dy="1em" class="messageText" alignment-baseline="middle" dominant-baseline="middle" text-anchor="middle" y="1483" x="812">"ready" tests</text><text style="font-size: 16px; font-weight: 400;" dy="1em" class="messageText" alignment-baseline="middle" dominant-baseline="middle" text-anchor="middle" y="1501" x="812">[getTestInfo()]</text><line style="fill: none;" marker-end="url(#arrowhead)" stroke="none" stroke-width="2" class="messageLine0" y2="1531" x2="573" y1="1531" x1="1051"/><text style="font-size: 16px; font-weight: 400;" dy="1em" class="messageText" alignment-baseline="middle" dominant-baseline="middle" text-anchor="middle" y="1546" x="809">respond with</text><text style="font-size: 16px; font-weight: 400;" dy="1em" class="messageText" alignment-baseline="middle" dominant-baseline="middle" text-anchor="middle" y="1565" x="809">list of tests</text><line style="fill: none;" marker-end="url(#arrowhead)" stroke="none" stroke-width="2" class="messageLine0" y2="1595" x2="1048" y1="1595" x1="570"/><text style="font-size: 16px; font-weight: 400;" dy="1em" class="messageText" alignment-baseline="middle" dominant-baseline="middle" text-anchor="middle" y="1767" x="812">request input</text><text style="font-size: 16px; font-weight: 400;" dy="1em" class="messageText" alignment-baseline="middle" dominant-baseline="middle" text-anchor="middle" y="1786" x="812">parameters</text><text style="font-size: 16px; font-weight: 400;" dy="1em" class="messageText" alignment-baseline="middle" dominant-baseline="middle" text-anchor="middle" y="1804" x="812">[getTestInfo()]</text><line style="fill: none;" marker-end="url(#arrowhead)" stroke="none" stroke-width="2" class="messageLine0" y2="1834" x2="573" y1="1834" x1="1051"/><text style="font-size: 16px; font-weight: 400;" dy="1em" class="messageText" alignment-baseline="middle" dominant-baseline="middle" text-anchor="middle" y="1849" x="809">respond with</text><text style="font-size: 16px; font-weight: 400;" dy="1em" class="messageText" alignment-baseline="middle" dominant-baseline="middle" text-anchor="middle" y="1868" x="809">input parameters</text><line style="fill: none;" marker-end="url(#arrowhead)" stroke="none" stroke-width="2" class="messageLine0" y2="1898" x2="1048" y1="1898" x1="570"/><text style="font-size: 16px; font-weight: 400;" dy="1em" class="messageText" alignment-baseline="middle" dominant-baseline="middle" text-anchor="middle" y="1913" x="812">request files</text><text style="font-size: 16px; font-weight: 400;" dy="1em" class="messageText" alignment-baseline="middle" dominant-baseline="middle" text-anchor="middle" y="1932" x="812">[getFile()]</text><line style="fill: none;" marker-end="url(#arrowhead)" stroke="none" stroke-width="2" class="messageLine0" y2="1962" x2="573" y1="1962" x1="1051"/><text style="font-size: 16px; font-weight: 400;" dy="1em" class="messageText" alignment-baseline="middle" dominant-baseline="middle" text-anchor="middle" y="1977" x="809">respond with file data</text><line style="fill: none;" marker-end="url(#arrowhead)" stroke="none" stroke-width="2" class="messageLine0" y2="2008" x2="1048" y1="2008" x1="570"/><text style="font-size: 16px; font-weight: 400;" dy="1em" class="messageText" alignment-baseline="middle" dominant-baseline="middle" text-anchor="middle" y="2072" x="812">submit test case log</text><text style="font-size: 16px; font-weight: 400;" dy="1em" class="messageText" alignment-baseline="middle" dominant-baseline="middle" text-anchor="middle" y="2091" x="812">[addResult()]</text><line style="fill: none;" marker-end="url(#arrowhead)" stroke="none" stroke-width="2" class="messageLine0" y2="2121" x2="573" y1="2121" x1="1051"/><text style="font-size: 16px; font-weight: 400;" dy="1em" class="messageText" alignment-baseline="middle" dominant-baseline="middle" text-anchor="middle" y="2618" x="812">update test result</text><text style="font-size: 16px; font-weight: 400;" dy="1em" class="messageText" alignment-baseline="middle" dominant-baseline="middle" text-anchor="middle" y="2637" x="812">[setTestStatus()]</text><line style="fill: none;" marker-end="url(#arrowhead)" stroke="none" stroke-width="2" class="messageLine0" y2="2667" x2="573" y1="2667" x1="1051"/><text style="font-size: 16px; font-weight: 400;" dy="1em" class="messageText" alignment-baseline="middle" dominant-baseline="middle" text-anchor="middle" y="2819" x="323">poll for results</text><text style="font-size: 16px; font-weight: 400;" dy="1em" class="messageText" alignment-baseline="middle" dominant-baseline="middle" text-anchor="middle" y="2838" x="323">[getTestInfo()]</text><line style="fill: none;" marker-end="url(#arrowhead)" stroke="none" stroke-width="2" class="messageLine0" y2="2868" x2="565" y1="2868" x1="80"/></svg>